<svg xmlns="http://www.w3.org/2000/svg" width="150.692" height="593.625" viewBox="0 0 150.692 593.625">
  <g id="Layer_2" data-name="Layer 2" transform="translate(0 0.004)">
    <g id="OBJECTS">
      <path id="Path_208" data-name="Path 208" d="M50.671,580.351c-1.868.992-4.3.195-6.188,1.128-3.23,1.635-2.316,5.9-4.5,8.192-1.848,1.965-5.021,2.257-7.55,2.763a59.788,59.788,0,0,1-25.063-.292,3.386,3.386,0,0,1-1.284-.525,3,3,0,0,1-.876-2.063,31.548,31.548,0,0,1-.467-3.97,4.685,4.685,0,0,1,1.032-2.957,14.952,14.952,0,0,1,3.5-2.841c5.6-3.736,13.485-9.574,15.937-16.093.253-.681.623-3.833,1.129-6.986.545-3.542,1.265-7.083,2.121-7.005.156,0,21.716,1.849,21.716,1.849a.945.945,0,0,1,1.362.292c1.382,2.607.195,9.438.253,12.434C51.877,568.131,55.088,578.035,50.671,580.351Z" fill="#313b45"/>
      <path id="Path_209" data-name="Path 209" d="M37.264,567.664c-.525,1.537-2.16,2.315-3.483,3.269a10.761,10.761,0,0,0-4.281,7.336,8.386,8.386,0,0,1-.6,3.191c-.837,1.6-2.822,2.141-4.592,2.471a97.021,97.021,0,0,1-19.556,1.654,4.685,4.685,0,0,1,1.032-2.957,14.952,14.952,0,0,1,3.5-2.841c5.6-3.736,13.485-9.574,15.937-16.093.253-.681.623-3.833,1.129-6.986,1.167.584,2.354,1.167,3.522,1.771,3.172,1.6,6.674,3.6,7.452,7.064a3.923,3.923,0,0,1-.059,2.121Z" fill="#444d56"/>
      <path id="Path_210" data-name="Path 210" d="M150.242,589.555a2.994,2.994,0,0,1-.876,2.063,3.382,3.382,0,0,1-1.284.525,59.791,59.791,0,0,1-25.063.292c-.973-.195-2.024-.35-3.055-.584a8.639,8.639,0,0,1-4.514-2.179c-2.16-2.3-1.246-6.558-4.476-8.192-1.887-.934-4.32-.136-6.188-1.128-4.417-2.316-1.207-12.22-1.129-16.073.02-1.109-.136-2.744-.253-4.476-.214-3-.37-6.3.506-7.959a.942.942,0,0,1,1.362-.292s21.56-1.849,21.716-1.849c1.615-.136,2.724,12.57,3.25,13.991,2.432,6.519,10.333,12.356,15.937,16.093a14.96,14.96,0,0,1,3.5,2.841C151.351,584.71,150.514,587.162,150.242,589.555Z" fill="#313b45"/>
      <path id="Path_211" data-name="Path 211" d="M69.371,376.15c-.525,13.271-6.266,25.511-6.3,39.288-.058,15.081,2.355,29.461.428,44.522-1.926,15.159-2.413,30.687-3.541,45.943l-3.794,51.313s-7.317,1.868-21.989.156a141.1,141.1,0,0,1-15.509-2.744c.389-25.433,4.261-168.241,5.02-196.379.1-3.113.136-4.826.136-4.826s46.507-.642,46.993,0C73.049,356.321,69.507,372.608,69.371,376.15Z" fill="#314f72"/>
      <path id="Path_212" data-name="Path 212" d="M36,382.708q-.9,87.331-1.829,174.662a141.1,141.1,0,0,1-15.509-2.744c.389-25.433,4.261-168.241,5.02-196.379,3.094,4.417,8.5,8.056,10.78,13.135C36.057,374.885,36.038,378.874,36,382.708Z" fill="#405c86"/>
      <path id="Path_213" data-name="Path 213" d="M133.9,554.627a132.677,132.677,0,0,1-21.911,3.308c-10.391.6-15.587-.72-15.587-.72q-1.781-23.789-3.522-47.577c-2.14-28.994-6.324-58.532-3.58-87.467,1.362-14.419-.953-29.013-4.3-42.926-.856-3.5-1.5-6.791-1.985-10.138-.389-2.724-.681-5.487-.876-8.445-.078-1.07-1.109-6.363-.389-7.239.506-.642,46.993,0,46.993,0S133.469,526.392,133.9,554.627Z" fill="#314f72"/>
      <path id="Path_214" data-name="Path 214" d="M111.986,557.935c-10.391.6-15.587-.72-15.587-.72q-1.781-23.789-3.522-47.577c-2.14-28.994-6.324-58.532-3.58-87.467,1.362-14.419-.953-29.013-4.3-42.926-.856-3.5-1.5-6.791-1.985-10.138,7.005,12.2,12.59,25.336,15.061,39.19,1.537,8.465,1.887,17.085,2.355,25.666C102.626,475.41,107.18,516.7,111.986,557.935Z" fill="#405c86"/>
      <path id="Path_215" data-name="Path 215" d="M134.111,296.077c2.471,21.132,1.012,43.16,1.012,64.564,0,0-31.912,4.495-51.313,5.838-3.405.233-6.441.37-8.834.37-16.034,0-60.011-6.207-60.011-6.207,0-32.963,1.791-64.992,4.729-97.858,1.323-14.905,1.148-29.441.662-44.347a4.081,4.081,0,0,0-.019-.487c0-.311,0-.623-.02-.934-.6-18.369-5.993-36.583-5.351-54.718C16,133.168,25.2,103.2,25.2,103.2S45.67,92.284,75.034,89.579c29.383,2.705,49.853,13.621,49.853,13.621,5.527,13.6,5.877,29.286,7.764,43.685,1.031,7.881,1.848,16,2.432,24.129.545,7.317.915,14.672,1.109,21.872C137.127,227.465,130.083,261.479,134.111,296.077Z" fill="#fff"/>
      <path id="Path_216" data-name="Path 216" d="M25.558,113.114q7.611,24.193,12.986,49.015c1.669,7.707,3.211,15.562,6.8,22.581,1.064,2.079,2.333,4.172,2.435,6.506l-7.832,1.813a21.347,21.347,0,0,1-6.674.817,10.844,10.844,0,0,1-8.457-5.627Z" fill="#bfdaf8"/>
      <path id="Path_217" data-name="Path 217" d="M134.111,296.077c2.471,21.132,1.012,43.16,1.012,64.564,0,0-31.912,4.495-51.313,5.838.117-2.18.272-4.378.448-6.577,2.121-28.2,5.332-56.353,5.585-84.666.058-7.18-.059-14.38-.448-21.561-.292-5.254.35-12.512-1.284-17.493-2.919-8.912-21.191-11.13-29.033-11.928-13.038-1.323-26.62-.8-38.723-5.818-.214-.078-.428-.156-.642-.253.214-.078.409-.156.622-.234a176.854,176.854,0,0,0,49.6-27.71,2.349,2.349,0,0,0,1.07-1.46,2.307,2.307,0,0,0-.545-1.42c-2.393-3.639-4.806-7.3-7.2-10.936a25.825,25.825,0,0,0,10.917-10.041c1.907-3.327,6.13-7.92,5.857-11.948,2.783,2.335,7.958,4.865,11.617,5.2a14.828,14.828,0,0,0,5.682-.759c17.085-5.2,21.016-24.187,26.795-38.82,3.522,4.067,4.359,9.729,5.1,15.042,1.693,12.006,3.7,23.973,5.857,35.921.545,7.317.915,14.672,1.109,21.872C137.127,227.465,130.083,261.479,134.111,296.077Z" fill="#fff"/>
      <path id="Path_218" data-name="Path 218" d="M93.987,110.128,73.049,169.322s-.214-.6-.584-1.693c-3.6-10.41-22.553-65.3-22.086-65.732l13.076,2.471Z" fill="#3172c4"/>
      <path id="Path_219" data-name="Path 219" d="M93.987,110.128,73.049,169.322s-.214-.6-.584-1.693c.175-14.419,3.989-29.071.272-42.985a33.146,33.146,0,0,1-3.853,5.585c-1.537-1.829-3.074-3.639-4.592-5.468l-.837-20.393Z" fill="#2766b7"/>
      <path id="Path_220" data-name="Path 220" d="M73.046,169.326,46.626,94.41l-7.18,23.644,10.316,8.079-4.6,14.915Z" fill="#fff"/>
      <path id="Path_221" data-name="Path 221" d="M73.046,169.326,98.137,92.665l8.508,25.389-10.316,8.079,4.6,14.915Z" fill="#e5f0ff"/>
      <path id="Path_222" data-name="Path 222" d="M92.452,86.565a288.835,288.835,0,0,0-38.813,0l-3.265,6.586,1.657,3.979,40.421-1.243Z" fill="#3172c4"/>
      <path id="Path_223" data-name="Path 223" d="M96.769,93.88s-8.367,19.3-21.716,21.833a11.3,11.3,0,0,1-2,.272c-14.5.817-18.1-1.985-19.751-20.8,6.344-1.4,5.9-5.877,4.962-16.287-.136-1.44-.272-2.977-.409-4.651-.155-2.062-.311-4.32-.409-6.772l13.777-.739,14.4-.778L85.911,76.8C86.184,87.653,88.11,94.541,96.769,93.88Z" fill="#de9b6e"/>
      <path id="Path_224" data-name="Path 224" d="M96.769,93.88s-8.367,19.3-21.716,21.833c.856-2.277,1.732-4.534,2.588-6.791,2.452-6.5-2.744-14.166-7.239-18.661C66.491,86.349,61.393,83.294,58.26,78.9c-.136-1.44-.272-2.977-.409-4.651L71.22,66.735l14.4-.778L85.911,76.8C86.184,87.653,88.11,94.541,96.769,93.88Z" fill="#d58b63"/>
      <path id="Path_225" data-name="Path 225" d="M43.677,21.565l1.5,19.162c-8.606-4.944-11.6,13.873,0,18.5C44.8,70.955,57.148,83.3,69.121,84.051S94.333,68.1,93.959,59.494c9.541.936,11.225-22.824,1.5-18.451.811-.366-.067-6-.066-6.921.005-4.833.175-9.535-.676-14.342a15.467,15.467,0,0,0-2.37-6.522c-1.642-2.25-4.21-3.6-6.686-4.878a38.408,38.408,0,0,0-8.11-3.42,32.8,32.8,0,0,0-7.435-.779c-6.568-.112-11.38,1.78-17.225,4.314C47.724,10.733,43.413,15.731,43.677,21.565Z" fill="#fdb382"/>
      <path id="Path_226" data-name="Path 226" d="M74.315,56.388c-.08,2.037-1.951,3.1-3.791,3.267a5.164,5.164,0,0,1-2.613-.341c-.355-.185-1.808-2.177-1.484-2.144a24.094,24.094,0,0,0,3.993.217C71.762,57.3,72.982,56.578,74.315,56.388Z" fill="#de9b6e"/>
      <path id="Path_227" data-name="Path 227" d="M69.678,67.46q.158.012.316.018c2.418.084,5.087-1.067,7.315-1.876a.774.774,0,0,1,.612-.044.523.523,0,0,1,.147.7,1.433,1.433,0,0,1-.593.512c-4.32,2.464-9.529,3.027-13.951.429-.364-.214-.752-.7-.445-.989a.718.718,0,0,1,.652-.068C65.716,66.388,67.685,67.306,69.678,67.46Z" fill="#956a4f"/>
      <path id="Path_228" data-name="Path 228" d="M69.725,71.884a5.3,5.3,0,0,0,2.117-.249c.379-.125.814-.43.709-.815-.1-.362-.577-.427-.952-.42l-2.054.037c-.443-.073.173-.11-.25.039a.93.93,0,0,0-.658,1.03c.183.66,1.115.649,1.783.493" fill="#de9b6e"/>
      <path id="Path_231" data-name="Path 231" d="M43.728,50.074a3.937,3.937,0,0,0,.6-2.024,5.829,5.829,0,0,0-.25-1.073,11.572,11.572,0,0,0-.575-2.084,1.788,1.788,0,0,0-1.689-1.122c-2.683.344-1.69,6.365-1.1,7.882a3.819,3.819,0,0,0,3.476,2.586C44.071,52.229,42.641,52.193,43.728,50.074Z" fill="#de9b6e"/>
      <path id="Path_232" data-name="Path 232" d="M95.369,50.074a3.937,3.937,0,0,1-.6-2.024,5.822,5.822,0,0,1,.251-1.073,11.563,11.563,0,0,1,.575-2.084,1.787,1.787,0,0,1,1.689-1.122c2.683.344,1.689,6.365,1.1,7.882a3.82,3.82,0,0,1-3.476,2.586C95.026,52.229,96.456,52.193,95.369,50.074Z" fill="#de9b6e"/>
      <path id="Path_233" data-name="Path 233" d="M46.024,28.672a2.023,2.023,0,0,0,.952,1.673c3.26,2.61,8.048,2.353,11.914.774s7.158-4.27,10.772-6.36A38.626,38.626,0,0,1,93.32,19.876a76.645,76.645,0,0,0-15.654-8.253A32.55,32.55,0,0,0,60.231,9.957c-5.788,1.206-11.24,4.676-14.077,9.863Z" fill="#de9b6e"/>
      <path id="Path_235" data-name="Path 235" d="M48.167,18.01V49.253H45.816l-1.1-8.526-2.351-24.4Z" fill="#1d1d1d"/>
      <path id="Path_236" data-name="Path 236" d="M91.945,18.384c-.374.748,1.123,28.437,1.123,28.437h2.058S97,26.8,96.248,20.442,91.945,18.384,91.945,18.384Z" fill="#1d1d1d"/>
      <path id="Path_237" data-name="Path 237" d="M98.6,18.068v.058a4.681,4.681,0,0,1-2.861,4.183c-2.218.759-4.534-.623-6.635-1.673a25.406,25.406,0,0,0-18.7-1.343c-6.051,1.926-11.5,5.74-17.765,7.083a13.425,13.425,0,0,1-7.589-.311,8.454,8.454,0,0,1-5.254-5.409A7.515,7.515,0,0,1,39.5,18.5c.058-3.736,2.782-7.3,5.7-9.788a36.48,36.48,0,0,1,50.671,3.25,11.928,11.928,0,0,1,1.868,2.627,7,7,0,0,1,.856,3.483Z" fill="#2d2d2d"/>
      <path id="Path_238" data-name="Path 238" d="M97.742,14.585a35.357,35.357,0,0,1-5.74.1C82.9,14.1,73.613,10.207,64.935,13.009,59.486,14.76,55.05,19,49.523,20.5a81.84,81.84,0,0,1,7.628-7.3,50.423,50.423,0,0,1-14.186,4.962A20.288,20.288,0,0,1,39.5,18.5c.058-3.736,2.783-7.3,5.7-9.788a36.48,36.48,0,0,1,50.671,3.25,11.929,11.929,0,0,1,1.868,2.627Z" fill="#464646"/>
      <path id="Path_239" data-name="Path 239" d="M73.049,115.985,64.74,128.828S46.39,114.273,47.052,94.405q.35-.671.642-1.284c.642-1.187,1.226-2.141,1.751-2.938,2.685-4.008,4.2-3.619,4.2-3.619S56.236,106.664,73.049,115.985Z" fill="#86acdc"/>
      <path id="Path_240" data-name="Path 240" d="M81.338,128.828l-8.29-12.843c16.812-9.321,19.4-29.422,19.4-29.422s1.265-.331,3.542,2.685A23.584,23.584,0,0,1,97.82,92.09c.389.681.8,1.46,1.226,2.316C99.707,114.273,81.338,128.828,81.338,128.828Z" fill="#5d90d0"/>
      <path id="Path_241" data-name="Path 241" d="M96.146,198.53c.1,1.323-58.162,20.451-75.13,19.809a7.461,7.461,0,0,1-3.794-.856C8.952,211.9,3.25,206.158,1.285,197.343c-1.421-6.3-3.113-57.131,3.717-71.005,6.85-13.874,20.2-23.137,20.2-23.137l6.538,83.517s.37-.059,1.07-.156c4.475-.662,22.144-3.23,36.544-5.293,10.586-1.537,19.381-2.783,19.809-2.783.8,0,4.047,9.788,5.838,15.7C95.66,196.447,96.107,198.14,96.146,198.53Z" fill="#fff"/>
      <path id="Path_242" data-name="Path 242" d="M96.146,198.53c.1,1.323-58.162,20.451-75.13,19.809a214.634,214.634,0,0,1,31.757-14.166,55,55,0,0,0,10.352-4.359c-7.472-2-13.329-9.165-21.054-9.068-1.634.02-3.25.389-4.9.331a9.534,9.534,0,0,1-6.577-3.113l2.219-1.4c4.475-.662,22.144-3.23,36.544-5.293a84.54,84.54,0,0,1,16.871,7.122,54.8,54.8,0,0,1,8.776,5.8C95.66,196.447,96.107,198.14,96.146,198.53Z" fill="#b3d3ee"/>
      <path id="Path_243" data-name="Path 243" d="M70.986,190.376c-.078.117-4.5-.487-8.912-1.109-4.4-.642-8.776-1.3-8.776-1.3s-13.076,1.907-14.652,2.024a13.922,13.922,0,0,1-3.5-.195,20.329,20.329,0,0,1-6.46-2.413,45.954,45.954,0,0,0,3.055-3.6c.973-1.4,17.338-11.967,21.56-12.279s17.221,2.491,17.688,2.646C70.986,174.148,71.142,190.143,70.986,190.376Z" fill="#fdb382"/>
      <path id="Path_244" data-name="Path 244" d="M62.444,183.118l-.37,6.149c-4.4-.642-8.776-1.3-8.776-1.3s-13.076,1.907-14.652,2.024a13.923,13.923,0,0,1-3.5-.195q5.108-3.415,10.508-6.363c2.958-1.615,6.266-3.152,9.554-2.51C57.7,181.406,59.914,183.118,62.444,183.118Z" fill="#de9b6e"/>
      <path id="Path_245" data-name="Path 245" d="M148.724,202.363c-.024.47-.1.817-.117,1.031-.623,5.273-13.757,12.181-17.8,14.01-4.048,1.81-75.831-25.861-75.831-25.861L59,180.491l3.288-9.01L98.7,178.564l19.926,3.6s.487-11.637.584-25.277c.1-17.708,1.168-40.844,5.682-53.687C154.527,119.826,149.238,192.3,148.724,202.363Z" fill="#fff"/>
      <path id="Path_246" data-name="Path 246" d="M49.445,90.183c-.525.8-1.109,1.751-1.751,2.938a23.928,23.928,0,0,0-9.827,11.247c-2.588,5.857-3.269,12.454-3.308,19.011v.37a103.587,103.587,0,0,0,5.06,31.951l-1.849.6a105.657,105.657,0,0,1-5.157-32.555v-.37c.039-6.674.72-13.563,3.483-19.79C38.7,97.713,43.335,92.459,49.445,90.183Z" fill="#314f72"/>
      <path id="Path_247" data-name="Path 247" d="M114.671,122.8a43.745,43.745,0,0,1-.564,7.336l-1.926-.35a40.9,40.9,0,0,0,.545-6.986,44.813,44.813,0,0,0-.642-7.881c-1.07-5.429-2.763-10.78-5.838-15.256a22.791,22.791,0,0,0-8.426-7.57,23.586,23.586,0,0,0-1.829-2.841,23.584,23.584,0,0,1,11.869,9.3,42.705,42.705,0,0,1,6.13,16,46.07,46.07,0,0,1,.681,8.251Z" fill="#314f72"/>
      <path id="Path_248" data-name="Path 248" d="M107.25,178.2a15.51,15.51,0,0,1-2.677-1.422,4.262,4.262,0,0,1-1.618-1.913,6.715,6.715,0,0,1-.29-2.383v-.241c0-3.944-.216-8.3-.216-12.705-.01-9.471,1.024-19.12,6.959-25.525a10.937,10.937,0,0,1,2.474-2.048,5.49,5.49,0,0,1,2.752-.823l.276.009a5.764,5.764,0,0,1,4.02,2.4,14.175,14.175,0,0,1,2.15,4.805,41.171,41.171,0,0,1,1.5,11.374c0,6.427-1.188,12.785-1.754,19.953a11.537,11.537,0,0,1-.827,4.208,3.831,3.831,0,0,1-1.118,1.352,2.413,2.413,0,0,1-1.425.522l-.182-.009-.191,1.936.373.018a4.352,4.352,0,0,0,2.586-.906,5.768,5.768,0,0,0,1.7-2.05,13.209,13.209,0,0,0,1.024-4.919c.55-7.04,1.756-13.436,1.759-20.107a43.11,43.11,0,0,0-1.574-11.9,16.036,16.036,0,0,0-2.475-5.457,7.68,7.68,0,0,0-5.443-3.166l-.4-.013a7.425,7.425,0,0,0-3.73,1.087,12.856,12.856,0,0,0-2.926,2.411c-6.518,7.1-7.464,17.273-7.474,26.844,0,4.472.216,8.831.216,12.705v.065h.973l-.973-.012v.188a8.469,8.469,0,0,0,.418,3.079,6.192,6.192,0,0,0,2.308,2.8,17.31,17.31,0,0,0,3.016,1.614l.789-1.779Z" fill="#314f72"/>
      <path id="Path_249" data-name="Path 249" d="M118.605,159.9l-.051.016a13.171,13.171,0,0,0-.743-4.271,43.369,43.369,0,0,0-21.687,12.937,51.932,51.932,0,0,1-4.623,4.4,46.51,46.51,0,0,1-5.449,3.12c1.52-.889,8.936,1.68,10.75,2.007,3.976.719,7.985,1.318,11.939,2.114,10.162,2.045,20.387,4.326,30.764,2.3a2.209,2.209,0,0,0-.774-2.992,6.41,6.41,0,0,0-3.33-.784l-13.954-.7,24.547-1.9c1.683-.13,3.955-1.026,3.509-2.654-.315-1.152-1.792-1.437-2.985-1.492a152.891,152.891,0,0,0-24.358.823q12.316-2.75,24.361-6.564c1.16-.367,2.484-.907,2.805-2.081a2.552,2.552,0,0,0-1.842-2.829,7.432,7.432,0,0,0-3.681.048l-20.973,3.839,23.121-10.072a1.951,1.951,0,0,0-1.43-2.4,5.63,5.63,0,0,0-3.1.278Q129.968,156.322,118.605,159.9Z" fill="#fdb382"/>
      <path id="Path_250" data-name="Path 250" d="M32.633,161.091a8.513,8.513,0,1,1,8.513,8.513,8.513,8.513,0,0,1-8.513-8.513Z" fill="#6e7381"/>
      <path id="Path_251" data-name="Path 251" d="M36.525,161.091a4.865,4.865,0,1,1,4.865,4.865,4.865,4.865,0,0,1-4.865-4.865Z" fill="#a0a3ac"/>
      <path id="Path_252" data-name="Path 252" d="M102.081,557.176l-.35.6a.7.7,0,0,1-.078-.175.666.666,0,0,1,.02-.661C101.848,556.786,102.218,556.981,102.081,557.176Z" fill="#444d56"/>
      <path id="Path_253" data-name="Path 253" d="M138.547,584.418l-11.189.234c-2.1.039-4.631.331-5.565,2.218a14.094,14.094,0,0,0-.662,2.88,5.321,5.321,0,0,1-1.168,2.1,8.64,8.64,0,0,1-4.514-2.179c-2.16-2.3-1.245-6.558-4.476-8.192-1.887-.934-4.32-.136-6.188-1.128-4.417-2.316-1.207-12.22-1.129-16.073.02-1.109-.136-2.744-.253-4.476a10.144,10.144,0,0,0,3.892,1.537c2.335.467,4.845.661,6.694,2.14a15.1,15.1,0,0,1,2.9,3.814c4.086,6.285,10.838,10.352,17.765,13.193C136.5,581.227,138.722,582.453,138.547,584.418Z" fill="#444d56"/>
      <path id="Path_254" data-name="Path 254" d="M148.724,202.363c-.058.467-.1.817-.117,1.031-.623,5.273-13.757,12.181-17.8,14.01-4.048,1.81-75.831-25.861-75.831-25.861L59,180.491c11.5,3.58,62.385,20.335,70.207,20.977C135.4,201.974,144.132,202.246,148.724,202.363Z" fill="#d4e6ff"/>
    </g>
  </g>
</svg>
