<svg xmlns="http://www.w3.org/2000/svg" width="197.125" height="197.661" viewBox="0 0 197.125 197.661">
  <g id="Group_28" data-name="Group 28" transform="translate(-86.387 -196.525)">
    <path id="iconmonstr-wireless-1" d="M33.536,60.1a20.994,20.994,0,0,1,30.927,0L49,76.5ZM26.4,52.531a30.684,30.684,0,0,1,45.194,0l9.514-10.094a43.6,43.6,0,0,0-64.223,0ZM9.751,34.87a53.3,53.3,0,0,1,78.5,0L98,24.527A67.157,67.157,0,0,0,49,3,67.157,67.157,0,0,0,0,24.527L9.751,34.87Z" transform="translate(216.337 194.404) rotate(45)" fill="#7787ff"/>
    <path id="Path_3" data-name="Path 3" d="M299.364,304.92H252.751v55.29H200.387v45.449h52.363v53.528h46.613V401.618h53.023V360.209" transform="translate(-107 -72)" fill="none" stroke="#7787ff" stroke-linecap="round" stroke-linejoin="round" stroke-width="14"/>
  </g>
</svg>
