<svg xmlns="http://www.w3.org/2000/svg" xmlns:xlink="http://www.w3.org/1999/xlink" width="323.643" height="178.74" viewBox="0 0 323.643 178.74">
  <defs>
    <linearGradient id="linear-gradient" x1="0.5" y1="2.954" x2="0.5" y2="-2.873" gradientUnits="objectBoundingBox">
      <stop offset="0.002" stop-color="#fff" stop-opacity="0"/>
      <stop offset="1" stop-color="#235196"/>
    </linearGradient>
    <linearGradient id="linear-gradient-2" x1="-3.091" y1="0.272" x2="4.62" y2="0.799" xlink:href="#linear-gradient"/>
    <linearGradient id="linear-gradient-3" x1="-0.762" y1="-0.987" x2="2.099" y2="2.386" xlink:href="#linear-gradient"/>
    <linearGradient id="linear-gradient-4" x1="-3.024" y1="-0.242" x2="7.474" y2="2.006" xlink:href="#linear-gradient"/>
    <linearGradient id="linear-gradient-5" x1="-5.094" y1="-0.677" x2="6.58" y2="1.855" xlink:href="#linear-gradient"/>
    <linearGradient id="linear-gradient-6" x1="-1.396" y1="0.208" x2="2.25" y2="0.785" xlink:href="#linear-gradient"/>
    <linearGradient id="linear-gradient-7" x1="-0.045" y1="2.291" x2="0.961" y2="-0.808" xlink:href="#linear-gradient"/>
    <linearGradient id="linear-gradient-8" x1="-2.114" y1="0.256" x2="2.363" y2="0.683" xlink:href="#linear-gradient"/>
    <linearGradient id="linear-gradient-9" x1="0.196" y1="-2.606" x2="0.817" y2="2.952" xlink:href="#linear-gradient"/>
    <linearGradient id="linear-gradient-10" x1="3.689" y1="-10.796" x2="4.422" y2="-9.201" xlink:href="#linear-gradient"/>
  </defs>
  <g id="Objects" transform="translate(-239.277 -129.17)">
    <g id="XMLID_350_">
      <path id="XMLID_819_" d="M406.62,280.35c-66.19,0-122.77,3.63-145.56,8.75q4.44,6.09,9.35,11.79c26.81,4.19,77.76,7.02,136.21,7.02,86.32,0,156.3-6.17,156.3-13.78S492.94,280.35,406.62,280.35Z" fill="url(#linear-gradient)"/>
      <g id="XMLID_792_">
        <path id="XMLID_804_" d="M297.74,181.95V171.6H277.25v10.34a5.582,5.582,0,0,1-5.58,5.58h0a5.582,5.582,0,0,0-5.58,5.58v88.83a9.538,9.538,0,0,0,9.54,9.54h23.74a9.538,9.538,0,0,0,9.54-9.54V193.1a5.582,5.582,0,0,0-5.58-5.58h0A5.569,5.569,0,0,1,297.74,181.95Z" fill="#4dd0e1"/>
        <rect id="XMLID_803_" width="37.24" height="32.56" transform="translate(271.67 205.04)" fill="#fff"/>
        <path id="XMLID_802_" d="M303.33,187.53a5.582,5.582,0,0,1-5.58-5.58V171.6h-7.58v10.34a5.582,5.582,0,0,0,5.58,5.58h0a5.582,5.582,0,0,1,5.58,5.58v88.83a9.538,9.538,0,0,1-9.54,9.54h7.58a9.538,9.538,0,0,0,9.54-9.54V193.1A5.58,5.58,0,0,0,303.33,187.53Z" fill="url(#linear-gradient-2)"/>
        <rect id="XMLID_801_" width="20.49" height="9.3" transform="translate(277.25 171.6)" fill="url(#linear-gradient-3)"/>
        <g id="XMLID_798_">
          <path id="XMLID_800_" d="M298.29,176.78H276.7a3.034,3.034,0,0,1-3.03-3.03v-7.64a3.034,3.034,0,0,1,3.03-3.03h21.59a3.034,3.034,0,0,1,3.03,3.03v7.64A3.022,3.022,0,0,1,298.29,176.78Z" fill="#fff"/>
          <path id="XMLID_799_" d="M287.5,147.65h0a5.988,5.988,0,0,0-5.99,5.99v9.44h11.97v-9.44A5.986,5.986,0,0,0,287.5,147.65Z" fill="#fff"/>
        </g>
        <g id="XMLID_795_">
          <path id="XMLID_797_" d="M289.19,153.63v9.44h4.29v-9.44a5.988,5.988,0,0,0-5.99-5.99,6.133,6.133,0,0,0-2.15.41A6.005,6.005,0,0,1,289.19,153.63Z" fill="url(#linear-gradient-4)"/>
          <path id="XMLID_796_" d="M298.29,163.07H294a3.034,3.034,0,0,1,3.03,3.03v7.64a3.034,3.034,0,0,1-3.03,3.03h4.29a3.034,3.034,0,0,0,3.03-3.03V166.1A3.022,3.022,0,0,0,298.29,163.07Z" fill="url(#linear-gradient-5)"/>
        </g>
        <path id="XMLID_794_" d="M274.46,242.34h0a2.791,2.791,0,0,1-2.79-2.79V197.53a2.791,2.791,0,0,1,2.79-2.79h0a2.791,2.791,0,0,1,2.79,2.79v42.02A2.791,2.791,0,0,1,274.46,242.34Z" fill="#fff" opacity="0.3"/>
        <path id="XMLID_793_" d="M274.46,258.97h0a2.791,2.791,0,0,1-2.79-2.79v-3.77a2.791,2.791,0,0,1,2.79-2.79h0a2.791,2.791,0,0,1,2.79,2.79v3.77A2.791,2.791,0,0,1,274.46,258.97Z" fill="#fff" opacity="0.3"/>
      </g>
      <g id="XMLID_753_">
        <path id="XMLID_791_" d="M515.53,227.5H404.72a4.131,4.131,0,0,0-4.13,4.13v56.76a4.131,4.131,0,0,0,4.13,4.13H515.53a4.131,4.131,0,0,0,4.13-4.13V231.63A4.131,4.131,0,0,0,515.53,227.5Z" fill="#4dd0e1"/>
        <circle id="XMLID_790_" cx="9.39" cy="9.39" r="9.39" transform="translate(409.343 248.032) rotate(-45)" fill="#28bbc6"/>
        <circle id="XMLID_789_" cx="9.39" cy="9.39" r="9.39" transform="translate(409.345 277.261) rotate(-45)" fill="#28bbc6"/>
        <circle id="XMLID_788_" cx="9.39" cy="9.39" r="9.39" transform="matrix(0.925, -0.38, 0.38, 0.925, 437.11, 242.924)" fill="#28bbc6"/>
        <circle id="XMLID_787_" cx="9.39" cy="9.39" r="9.39" transform="matrix(0.925, -0.38, 0.38, 0.925, 437.111, 272.154)" fill="#28bbc6"/>
        <circle id="XMLID_786_" cx="9.39" cy="9.39" r="9.39" transform="matrix(0.925, -0.38, 0.38, 0.925, 463.84, 242.924)" fill="#28bbc6"/>
        <circle id="XMLID_785_" cx="9.39" cy="9.39" r="9.39" transform="matrix(0.925, -0.38, 0.38, 0.925, 463.842, 272.154)" fill="#28bbc6"/>
        <circle id="XMLID_784_" cx="9.39" cy="9.39" r="9.39" transform="matrix(0.925, -0.38, 0.38, 0.925, 490.571, 242.923)" fill="#28bbc6"/>
        <circle id="XMLID_783_" cx="9.39" cy="9.39" r="9.39" transform="matrix(0.925, -0.38, 0.38, 0.925, 490.572, 272.154)" fill="#28bbc6"/>
        <g id="XMLID_780_">
          <circle id="XMLID_782_" cx="9.39" cy="9.39" r="9.39" transform="translate(409.754 253.326) rotate(-80.782)" fill="#fff"/>
          <path id="XMLID_781_" d="M418.4,254.7a9.071,9.071,0,0,0,4.23,0V236.41a9.071,9.071,0,0,0-4.23,0Z" fill="#e7edf4"/>
        </g>
        <g id="XMLID_777_">
          <circle id="XMLID_779_" cx="9.39" cy="9.39" r="9.39" transform="translate(408.253 269.369) rotate(-22.5)" fill="#fff"/>
          <path id="XMLID_778_" d="M418.4,283.6a9.071,9.071,0,0,0,4.23,0V265.31a9.071,9.071,0,0,0-4.23,0Z" fill="#e7edf4"/>
        </g>
        <g id="XMLID_774_">
          <circle id="XMLID_776_" cx="9.39" cy="9.39" r="9.39" transform="matrix(0.156, -0.988, 0.988, 0.156, 436.518, 253.396)" fill="#fff"/>
          <path id="XMLID_775_" d="M445.13,254.7a9.114,9.114,0,0,0,4.24,0V236.41a9.114,9.114,0,0,0-4.24,0Z" fill="#e7edf4"/>
        </g>
        <g id="XMLID_771_">
          <circle id="XMLID_773_" cx="9.39" cy="9.39" r="9.39" transform="translate(435.095 269.117) rotate(-21.351)" fill="#fff"/>
          <path id="XMLID_772_" d="M445.13,283.6a9.114,9.114,0,0,0,4.24,0V265.31a9.114,9.114,0,0,0-4.24,0Z" fill="#e7edf4"/>
        </g>
        <g id="XMLID_768_">
          <circle id="XMLID_770_" cx="9.39" cy="9.39" r="9.39" transform="translate(460.688 245.562) rotate(-45)" fill="#fff"/>
          <path id="XMLID_769_" d="M471.86,254.7a9.114,9.114,0,0,0,4.24,0V236.41a9.114,9.114,0,0,0-4.24,0Z" fill="#e7edf4"/>
        </g>
        <g id="XMLID_760_">
          <circle id="XMLID_762_" cx="9.39" cy="9.39" r="9.39" transform="translate(462.665 281.445) rotate(-76.661)" fill="#fff"/>
          <path id="XMLID_761_" d="M471.86,283.6a9.114,9.114,0,0,0,4.24,0V265.31a9.114,9.114,0,0,0-4.24,0Z" fill="#e7edf4"/>
        </g>
        <g id="XMLID_757_">
          <circle id="XMLID_759_" cx="9.39" cy="9.39" r="9.39" transform="translate(489.936 253.307) rotate(-80.811)" fill="#fff"/>
          <path id="XMLID_758_" d="M498.59,254.7a9.114,9.114,0,0,0,4.24,0V236.41a9.114,9.114,0,0,0-4.24,0Z" fill="#e7edf4"/>
        </g>
        <g id="XMLID_754_">
          <circle id="XMLID_756_" cx="9.39" cy="9.39" r="9.39" transform="matrix(0.925, -0.38, 0.38, 0.925, 488.451, 269.346)" fill="#fff"/>
          <path id="XMLID_755_" d="M498.59,283.6a9.114,9.114,0,0,0,4.24,0V265.31a9.114,9.114,0,0,0-4.24,0Z" fill="#e7edf4"/>
        </g>
      </g>
      <g id="XMLID_739_">
        <g id="Group_269" data-name="Group 269">
          <path id="XMLID_18_" d="M308.22,145.56h0a2.928,2.928,0,0,1-2.93-2.93V132.1a2.928,2.928,0,0,1,2.93-2.93h0a2.928,2.928,0,0,1,2.93,2.93v10.53A2.928,2.928,0,0,1,308.22,145.56Z" fill="#235196"/>
          <path id="XMLID_17_" d="M300.02,137.37h0a2.928,2.928,0,0,1,2.93-2.93h10.53a2.928,2.928,0,0,1,2.93,2.93h0a2.928,2.928,0,0,1-2.93,2.93H302.95A2.928,2.928,0,0,1,300.02,137.37Z" fill="#235196"/>
        </g>
      </g>
      <g id="XMLID_552_">
        <path id="XMLID_623_" d="M384.63,291.48H336.59a6.31,6.31,0,0,1-6.31-6.31V207.98h60.67v77.19A6.331,6.331,0,0,1,384.63,291.48Z" fill="#235196"/>
        <path id="XMLID_622_" d="M391.83,217.22H329.38a3.529,3.529,0,0,1-3.53-3.53V196.4a3.529,3.529,0,0,1,3.53-3.53h62.45a3.529,3.529,0,0,1,3.53,3.53v17.29A3.529,3.529,0,0,1,391.83,217.22Z" fill="#e7edf4"/>
        <rect id="XMLID_621_" width="60.67" height="27.09" transform="translate(330.27 231.88)" fill="#4dd0e1"/>
        <g id="XMLID_555_">
          <path id="XMLID_620_" d="M331.53,196.84h0a1.093,1.093,0,0,0-1.09,1.09v19.28h2.19V197.93A1.108,1.108,0,0,0,331.53,196.84Z" fill="#fff"/>
          <path id="XMLID_619_" d="M339.86,196.84h0a1.093,1.093,0,0,0-1.09,1.09v19.28h2.19V197.93A1.1,1.1,0,0,0,339.86,196.84Z" fill="#fff"/>
          <path id="XMLID_618_" d="M348.19,196.84h0a1.093,1.093,0,0,0-1.09,1.09v19.28h2.19V197.93A1.1,1.1,0,0,0,348.19,196.84Z" fill="#fff"/>
          <path id="XMLID_560_" d="M356.52,196.84h0a1.093,1.093,0,0,0-1.09,1.09v19.28h2.19V197.93A1.1,1.1,0,0,0,356.52,196.84Z" fill="#fff"/>
          <path id="XMLID_559_" d="M364.85,196.84h0a1.093,1.093,0,0,0-1.09,1.09v19.28h2.19V197.93A1.1,1.1,0,0,0,364.85,196.84Z" fill="#fff"/>
          <path id="XMLID_558_" d="M373.18,196.84h0a1.093,1.093,0,0,0-1.09,1.09v19.28h2.19V197.93A1.1,1.1,0,0,0,373.18,196.84Z" fill="#fff"/>
          <path id="XMLID_557_" d="M381.52,196.84h0a1.093,1.093,0,0,0-1.09,1.09v19.28h2.19V197.93A1.108,1.108,0,0,0,381.52,196.84Z" fill="#fff"/>
          <path id="XMLID_556_" d="M389.85,196.84h0a1.093,1.093,0,0,0-1.09,1.09v19.28h2.19V197.93A1.108,1.108,0,0,0,389.85,196.84Z" fill="#fff"/>
        </g>
        <rect id="XMLID_554_" width="10.52" height="74.26" transform="translate(338.77 217.22)" fill="#fff" opacity="0.3"/>
        <path id="XMLID_553_" d="M391.83,192.86H377.09a3.529,3.529,0,0,1,3.53,3.53v17.29a3.529,3.529,0,0,1-3.53,3.53h-.89v67.95a6.31,6.31,0,0,1-6.31,6.31h14.75a6.31,6.31,0,0,0,6.31-6.31V217.21h.89a3.529,3.529,0,0,0,3.53-3.53V196.39A3.544,3.544,0,0,0,391.83,192.86Z" fill="url(#linear-gradient-6)"/>
      </g>
      <g id="XMLID_486_">
        <path id="XMLID_551_" d="M537.09,201.07v-10.4H483.78v10.4a4.515,4.515,0,0,1-4.52,4.52h0a4.515,4.515,0,0,0-4.52,4.52v79.65a7.9,7.9,0,0,0,7.9,7.9h55.6a7.9,7.9,0,0,0,7.9-7.9V210.11a4.515,4.515,0,0,0-4.52-4.52h0A4.517,4.517,0,0,1,537.09,201.07Z" fill="#235196"/>
        <rect id="XMLID_550_" width="55.28" height="38.87" transform="translate(482.79 224.74)" fill="#e7edf4"/>
        <path id="XMLID_549_" d="M491.05,289.77V210.12a4.515,4.515,0,0,1,4.52-4.52,4.515,4.515,0,0,0,4.52-4.52v-10.4h-8.26v10.4a4.515,4.515,0,0,1-4.52,4.52h0a4.515,4.515,0,0,0-4.52,4.52v79.65a7.9,7.9,0,0,0,7.9,7.9h8.26A7.9,7.9,0,0,1,491.05,289.77Z" fill="#fff" opacity="0.3"/>
        <path id="XMLID_548_" d="M537.09,201.07v-10.4H483.78v10.4a4.515,4.515,0,0,1-4.52,4.52h62.36A4.517,4.517,0,0,1,537.09,201.07Z" fill="url(#linear-gradient-7)"/>
        <path id="XMLID_488_" d="M541.19,196.73H479.67a3.978,3.978,0,0,1-3.98-3.98v-4.42a3.978,3.978,0,0,1,3.98-3.98h61.52a3.978,3.978,0,0,1,3.98,3.98v4.42A3.984,3.984,0,0,1,541.19,196.73Z" fill="#4dd0e1"/>
        <path id="XMLID_487_" d="M541.61,205.59h0a4.515,4.515,0,0,1-4.52-4.52v-4.34h4.1a3.978,3.978,0,0,0,3.98-3.98v-4.42a3.978,3.978,0,0,0-3.98-3.98H522.2a3.978,3.978,0,0,1,3.98,3.98v4.42a3.978,3.978,0,0,1-3.98,3.98h-4.1v4.34a4.515,4.515,0,0,0,4.52,4.52,4.515,4.515,0,0,1,4.52,4.52v79.65a7.9,7.9,0,0,1-7.9,7.9h18.99a7.9,7.9,0,0,0,7.9-7.9V210.11A4.522,4.522,0,0,0,541.61,205.59Z" fill="url(#linear-gradient-8)"/>
      </g>
      <g id="XMLID_482_">
        <path id="XMLID_485_" d="M362.62,278.88h-4.13v.97a9.385,9.385,0,0,0,0,16.86v.97h4.13a9.4,9.4,0,0,0,0-18.8Z" fill="#d1dde8"/>
        <circle id="XMLID_484_" cx="9.39" cy="9.39" r="9.39" transform="translate(349.1 278.89)" fill="#fff"/>
        <path id="XMLID_483_" d="M356.37,297.42a9.071,9.071,0,0,0,4.23,0V279.13a9.071,9.071,0,0,0-4.23,0Z" fill="#e7edf4"/>
      </g>
      <g id="XMLID_478_">
        <path id="XMLID_481_" d="M331.76,278.88h-4.13v.97a9.385,9.385,0,0,0,0,16.86v.97h4.13a9.4,9.4,0,0,0,0-18.8Z" fill="#d1dde8"/>
        <circle id="XMLID_480_" cx="9.39" cy="9.39" r="9.39" transform="translate(318.24 278.89)" fill="#fff"/>
        <path id="XMLID_479_" d="M325.51,297.42a9.114,9.114,0,0,0,4.24,0V279.13a9.114,9.114,0,0,0-4.24,0Z" fill="#e7edf4"/>
      </g>
      <g id="XMLID_417_">
        <path id="XMLID_420_" d="M296.27,282.42H273.09a7.629,7.629,0,0,0-7.63,7.63h0a7.629,7.629,0,0,0,7.63,7.63h23.18a7.629,7.629,0,0,0,7.63-7.63h0A7.629,7.629,0,0,0,296.27,282.42Z" fill="#fff"/>
        <path id="XMLID_419_" d="M296.27,282.42H284.68v15.25h11.59a7.625,7.625,0,1,0,0-15.25Z" fill="#235196"/>
        <path id="XMLID_418_" d="M299.66,291.81H269.7a7.6,7.6,0,0,1-4.21-1.27,7.624,7.624,0,0,0,7.6,7.13h23.18a7.624,7.624,0,0,0,7.6-7.13A7.57,7.57,0,0,1,299.66,291.81Z" fill="url(#linear-gradient-9)"/>
      </g>
      <g id="XMLID_413_">
        <path id="XMLID_416_" d="M261.52,270.5l-18.99,13.29a7.621,7.621,0,0,0-1.87,10.62h0a7.621,7.621,0,0,0,10.62,1.87L270.26,283a7.621,7.621,0,0,0,1.87-10.62h0A7.619,7.619,0,0,0,261.52,270.5Z" fill="#fff"/>
        <path id="XMLID_415_" d="M261.52,270.5l-9.49,6.65,8.75,12.5,9.49-6.65a7.629,7.629,0,0,0-8.75-12.5Z" fill="#235196"/>
        <path id="XMLID_414_" d="M269.68,276.25l-24.55,17.18a7.547,7.547,0,0,1-4.18,1.37,7.626,7.626,0,0,0,10.32,1.48L270.26,283a7.625,7.625,0,0,0,2.14-10.2A7.525,7.525,0,0,1,269.68,276.25Z" fill="url(#linear-gradient-10)"/>
      </g>
    </g>
  </g>
</svg>
