<svg xmlns="http://www.w3.org/2000/svg" width="434" height="815.069" viewBox="0 0 434 815.069">
  <g id="Group_270" data-name="Group 270" transform="translate(8 -9.931)">
    <g id="Icons" transform="translate(16 65.164)">
      <g id="Group_41" data-name="Group 41" transform="translate(282.707)">
        <g id="Group_30" data-name="Group 30">
          <g id="Group_29" data-name="Group 29">
            <path id="Path_255" data-name="Path 255" d="M391.58,148.88,363,140.43a4.971,4.971,0,0,1-3.36-6.18l8.45-28.58a4.971,4.971,0,0,1,6.18-3.36l28.58,8.45a4.971,4.971,0,0,1,3.36,6.18l-8.45,28.58A4.97,4.97,0,0,1,391.58,148.88Z" transform="translate(-359.434 -102.104)" fill="#455a64"/>
          </g>
        </g>
        <g id="Group_40" data-name="Group 40" transform="translate(9.776 10.391)">
          <g id="Group_33" data-name="Group 33" transform="translate(0 0.943)">
            <g id="Group_32" data-name="Group 32">
              <g id="Group_31" data-name="Group 31">
                <path id="Path_256" data-name="Path 256" d="M391.62,137.08c0-.01.02-.12.07-.34q.09-.36.24-.93c.23-.84.55-2.01.95-3.49.84-3.01,2.02-7.26,3.44-12.37l.14.24c-6.3-1.79-13.93-3.97-22.15-6.3-.07.03.56-.31.29-.16h0v.01l-.01.02-.01.04-.02.07-.04.14-.08.29-.16.57-.33,1.14c-.22.76-.43,1.51-.65,2.25q-.645,2.235-1.26,4.38c-.83,2.86-1.61,5.59-2.35,8.14l-.15-.27c6.5,1.91,11.99,3.52,15.9,4.67,1.92.57,3.44,1.03,4.54,1.36.5.15.9.28,1.21.37.27.11.42.16.43.17a2.43,2.43,0,0,1-.4-.09c-.3-.08-.7-.18-1.19-.31-1.09-.3-2.61-.71-4.52-1.24-3.96-1.11-9.51-2.66-16.09-4.5l-.21-.06.06-.21c.73-2.55,1.5-5.29,2.32-8.15.41-1.43.83-2.89,1.25-4.38.21-.75.43-1.5.64-2.25l.33-1.14.16-.57.08-.29.04-.14.02-.07.01-.04.01-.02v-.01h0c-.26.15.36-.2.3-.17,8.21,2.37,15.83,4.57,22.12,6.39l.19.06-.06.19c-1.52,5.14-2.78,9.4-3.67,12.43-.44,1.44-.78,2.59-1.03,3.41-.11.36-.2.65-.28.88A1.25,1.25,0,0,1,391.62,137.08Z" transform="translate(-369.21 -113.438)" fill="#fafafa"/>
              </g>
            </g>
          </g>
          <g id="Group_36" data-name="Group 36" transform="translate(10.12)">
            <g id="Group_35" data-name="Group 35">
              <g id="Group_34" data-name="Group 34">
                <path id="Path_257" data-name="Path 257" d="M382.74,112.51a13.2,13.2,0,0,1,1.97.43c1.24.32,3,.79,5.09,1.37l.12.03.03.12c.31,1.18.65,2.47,1.01,3.83l.11.4-.4-.11q-1.02-.285-2.1-.6c-3.49-1-6.65-1.93-8.95-2.64l-.29-.09.22-.2c1.85-1.7,3.1-2.69,3.19-2.54,0,0-.3.24-.81.72-.58.56-1.3,1.25-2.15,2.07l-.07-.29c2.32.62,5.5,1.51,8.99,2.51q1.08.315,2.1.6l-.29.29c-.34-1.36-.67-2.66-.96-3.84l.15.15c-2.08-.62-3.82-1.15-5.04-1.53A11.084,11.084,0,0,1,382.74,112.51Z" transform="translate(-379.33 -112.495)" fill="#fafafa"/>
              </g>
            </g>
          </g>
          <g id="Group_39" data-name="Group 39" transform="translate(8.057 7.145)">
            <g id="Group_38" data-name="Group 38">
              <g id="Group_37" data-name="Group 37">
                <path id="Path_258" data-name="Path 258" d="M387.1,128.21c-.04-.03.24-.4.52-1.18a5.272,5.272,0,0,0,.04-3.4,5.082,5.082,0,1,0-4.71,6.63,5.218,5.218,0,0,0,3.2-1.17c.65-.51.91-.91.95-.88a1.258,1.258,0,0,1-.17.3,3.761,3.761,0,0,1-.65.73,5.265,5.265,0,0,1-3.31,1.36,5.441,5.441,0,0,1-4.71-2.31,5.355,5.355,0,0,1-.99-3.04,5.484,5.484,0,0,1,3.78-5.33,5.461,5.461,0,0,1,6.94,3.6,5.261,5.261,0,0,1-.19,3.57,4.164,4.164,0,0,1-.48.86C387.19,128.14,387.11,128.22,387.1,128.21Z" transform="translate(-377.267 -119.641)" fill="#fafafa"/>
              </g>
            </g>
          </g>
        </g>
      </g>
      <g id="Group_53" data-name="Group 53" transform="translate(0 59.183)">
        <g id="Group_47" data-name="Group 47">
          <g id="Group_42" data-name="Group 42">
            <path id="Path_259" data-name="Path 259" d="M135.43,215.9l-42.01,8.99a6.365,6.365,0,0,1-7.56-4.9l-8.99-42.01a6.365,6.365,0,0,1,4.9-7.56l42.01-8.99a6.365,6.365,0,0,1,7.56,4.9l8.99,42.01A6.377,6.377,0,0,1,135.43,215.9Z" transform="translate(-76.727 -161.287)" fill="#0e56a2"/>
          </g>
          <g id="Group_46" data-name="Group 46" transform="translate(11.941 18.115)">
            <g id="Group_45" data-name="Group 45">
              <g id="Group_44" data-name="Group 44">
                <g id="Group_43" data-name="Group 43">
                  <path id="Path_260" data-name="Path 260" d="M101.03,180.42a7.47,7.47,0,0,1,.99.42c.69.33,1.62.77,2.8,1.34l.11.06-.06.12c-.93,1.71-2.16,3.98-3.63,6.7l-.07-.27,13.64,8.75-.4.09c1.17-2,2.39-4.1,3.66-6.27l.12-.2.22.05a21.327,21.327,0,0,1,5.01,1.93,9.542,9.542,0,0,1,4.11,3.86,5.174,5.174,0,0,1,.45,1.43l.11.75-.06.76a4.992,4.992,0,0,1-.34,1.47,6.716,6.716,0,0,1-.58,1.38,9.05,9.05,0,0,1-4.35,4.13,9.794,9.794,0,0,1-5.98.62,10.824,10.824,0,0,1-2.8-.98c-.89-.46-1.65-1-2.45-1.5-3.17-2.02-6.22-3.98-9.13-5.84s-5.67-3.63-8.26-5.29c-.65-.41-1.28-.82-1.9-1.22a11.41,11.41,0,0,1-1.79-1.31,5.418,5.418,0,0,1-1.78-3.78,7.918,7.918,0,0,1,2.99-6.32,8.523,8.523,0,0,1,4.98-1.89,8.326,8.326,0,0,1,3.34.51,6.027,6.027,0,0,1,.8.36.968.968,0,0,1,.25.14,10.047,10.047,0,0,0-4.39-.76,8.423,8.423,0,0,0-4.76,1.92,7.592,7.592,0,0,0-2.76,6.01,4.948,4.948,0,0,0,1.66,3.43,10.75,10.75,0,0,0,1.73,1.24c.63.4,1.26.8,1.91,1.21,2.6,1.64,5.37,3.4,8.28,5.24l9.15,5.8c.8.49,1.59,1.05,2.4,1.46a10.464,10.464,0,0,0,2.64.92,9.171,9.171,0,0,0,5.58-.58,8.377,8.377,0,0,0,4.04-3.84,6.217,6.217,0,0,0,.54-1.28,4.78,4.78,0,0,0,.31-1.32l.06-.67-.1-.66a4.718,4.718,0,0,0-.39-1.26,8.9,8.9,0,0,0-3.83-3.58,20.58,20.58,0,0,0-4.84-1.89l.33-.14c-1.28,2.17-2.52,4.26-3.69,6.25l-.15.26-.25-.16c-5.23-3.43-9.83-6.45-13.55-8.89l-.16-.1.09-.16c1.53-2.69,2.8-4.94,3.77-6.63l.05.17c-1.16-.61-2.07-1.09-2.74-1.45A7.387,7.387,0,0,1,101.03,180.42Z" transform="translate(-88.668 -179.402)" fill="#fafafa"/>
                </g>
              </g>
            </g>
          </g>
        </g>
        <g id="Group_52" data-name="Group 52" transform="translate(33.102 17.313)">
          <g id="Group_49" data-name="Group 49" transform="translate(3.694)">
            <g id="Group_48" data-name="Group 48">
              <path id="Path_261" data-name="Path 261" d="M115.29,187.58a20.485,20.485,0,0,1-1.12-4.44,20.243,20.243,0,0,1-.61-4.54,20.485,20.485,0,0,1,1.12,4.44A20.243,20.243,0,0,1,115.29,187.58Z" transform="translate(-113.523 -178.6)" fill="#fafafa"/>
            </g>
          </g>
          <g id="Group_51" data-name="Group 51" transform="translate(0 3.487)">
            <g id="Group_50" data-name="Group 50">
              <path id="Path_262" data-name="Path 262" d="M119.01,182.12a20.948,20.948,0,0,1-4.52,1.22,21.824,21.824,0,0,1-4.66.72,21.454,21.454,0,0,1,4.52-1.22A21.485,21.485,0,0,1,119.01,182.12Z" transform="translate(-109.829 -182.087)" fill="#fafafa"/>
            </g>
          </g>
        </g>
      </g>
    </g>
    <g id="Character_2" transform="translate(214.653 51.751)">
      <g id="Group_226" data-name="Group 226">
        <g id="Group_57" data-name="Group 57">
          <g id="Group_54" data-name="Group 54" transform="translate(0.27 0.27)">
            <rect id="Rectangle_2" data-name="Rectangle 2" width="63.27" height="92.77" fill="#f5f5f5"/>
          </g>
          <g id="Group_56" data-name="Group 56">
            <g id="Group_55" data-name="Group 55">
              <path id="Path_263" data-name="Path 263" d="M338.91,181.73s-.01-.16-.01-.45c0-.31-.01-.75-.01-1.31-.01-1.17-.02-2.87-.03-5.08-.01-4.44-.04-10.91-.06-19.09-.03-16.35-.07-39.51-.12-66.82l.24.24c-19.24.01-40.69.01-63.26.02h-.01l.26-.26c-.02,34.89-.04,67.11-.05,92.77l-.21-.21c19.23.05,35.02.08,46.02.11,5.5.02,9.8.04,12.74.05,1.46.01,2.58.02,3.35.02.75-.01,1.15.01,1.15.01s-.37.01-1.12.02-1.87.01-3.31.02c-2.93.01-7.21.03-12.69.05-11.03.03-26.86.06-46.15.11h-.21v-.21c-.01-25.66-.03-57.87-.05-92.77v-.26h.27c22.57.01,44.02.02,63.26.02h.24v.24c-.05,27.38-.09,50.59-.12,66.98-.03,8.15-.05,14.61-.06,19.04-.01,2.19-.02,3.88-.03,5.04-.01.56-.01.98-.01,1.29C338.92,181.59,338.91,181.73,338.91,181.73Z" transform="translate(-275.38 -88.69)" fill="#263238"/>
            </g>
          </g>
        </g>
        <g id="Group_225" data-name="Group 225" transform="translate(1.03 8.401)">
          <g id="Group_58" data-name="Group 58" transform="translate(0.18 57.049)">
            <path id="Path_264" data-name="Path 264" d="M281.62,178.19a8.717,8.717,0,0,1,.07-15.83,3.777,3.777,0,0,0,1.53-.95c.56-.74.34-1.78.37-2.71a4.87,4.87,0,0,1,4.7-4.56l14.25,5.6v15.01Z" transform="translate(-276.59 -154.14)" fill="#263238"/>
          </g>
          <g id="Group_59" data-name="Group 59" transform="translate(0 73.228)">
            <path id="Path_265" data-name="Path 265" d="M276.41,181.48s10.54-8.33,23.57-10.29,27.52,0,27.52,0a40.108,40.108,0,0,1,11.35,3.93l.07,6.58-14.01-.05Z" transform="translate(-276.41 -170.319)" fill="#e8505b"/>
          </g>
          <g id="Group_66" data-name="Group 66" transform="translate(2.045)">
            <g id="Group_65" data-name="Group 65">
              <g id="Group_64" data-name="Group 64">
                <g id="Group_63" data-name="Group 63">
                  <g id="Group_62" data-name="Group 62">
                    <g id="Group_61" data-name="Group 61">
                      <g id="Group_60" data-name="Group 60">
                        <path id="Path_266" data-name="Path 266" d="M332.93,112.21c-1.36-3.77-7.81-7-11.34-8.89-5.29-2.81-10.09-2.05-12.96.7-5.51-4.32-12.71-8.4-19.42-6.41s-11.97,9.11-10.51,15.96c.86,4.03,3.79,7.58,3.77,11.71-.02,2.81-1.42,5.4-2.52,7.98s-1.91,5.59-.77,8.16c1.06,2.39,3.57,3.82,4.96,6.03,1.14,1.8,1.46,3.99,2.22,5.98,2.8,7.39,11.76,11.28,19.5,9.71s14.03-7.65,17.47-14.76,4.39-15.17,4.56-23.07" transform="translate(-278.455 -97.091)" fill="#263238"/>
                      </g>
                    </g>
                  </g>
                </g>
              </g>
            </g>
          </g>
          <g id="Group_68" data-name="Group 68" transform="translate(11.95 13.457)">
            <g id="Group_67" data-name="Group 67">
              <path id="Path_267" data-name="Path 267" d="M327.57,173.43l-.27-55.63-23.39-7.13a12.781,12.781,0,0,0-14.47,11.43c-.83,8.62-1.54,19.46-.71,26.04,1.63,12.83,11.36,14.76,11.36,14.76s-.08,4.76-.19,10.33a13.753,13.753,0,0,0,2.67,8.42H324.9A13.814,13.814,0,0,0,327.57,173.43Z" transform="translate(-288.36 -110.549)" fill="#ffbe9d"/>
            </g>
          </g>
          <g id="Group_218" data-name="Group 218" transform="translate(3.846 0.104)">
            <g id="Group_171" data-name="Group 171">
              <g id="Group_170" data-name="Group 170">
                <g id="Group_169" data-name="Group 169">
                  <g id="Group_103" data-name="Group 103" transform="translate(11.454 25.065)">
                    <g id="Group_102" data-name="Group 102">
                      <g id="Group_79" data-name="Group 79" transform="translate(8.32 36.51)">
                        <g id="Group_78" data-name="Group 78">
                          <g id="Group_77" data-name="Group 77">
                            <g id="Group_76" data-name="Group 76">
                              <g id="Group_75" data-name="Group 75">
                                <g id="Group_74" data-name="Group 74">
                                  <g id="Group_73" data-name="Group 73">
                                    <g id="Group_72" data-name="Group 72">
                                      <g id="Group_71" data-name="Group 71">
                                        <g id="Group_70" data-name="Group 70">
                                          <g id="Group_69" data-name="Group 69">
                                            <path id="Path_268" data-name="Path 268" d="M300.09,162.9a33.218,33.218,0,0,0,17.25-4.13s-4.57,9.12-17.31,7.53Z" transform="translate(-300.03 -158.77)" fill="#eb996e"/>
                                          </g>
                                        </g>
                                      </g>
                                    </g>
                                  </g>
                                </g>
                              </g>
                            </g>
                          </g>
                        </g>
                      </g>
                      <g id="Group_90" data-name="Group 90" transform="translate(16.294)">
                        <g id="Group_89" data-name="Group 89">
                          <g id="Group_88" data-name="Group 88">
                            <g id="Group_87" data-name="Group 87">
                              <g id="Group_86" data-name="Group 86">
                                <g id="Group_85" data-name="Group 85">
                                  <g id="Group_84" data-name="Group 84">
                                    <g id="Group_83" data-name="Group 83">
                                      <g id="Group_82" data-name="Group 82">
                                        <g id="Group_81" data-name="Group 81">
                                          <g id="Group_80" data-name="Group 80">
                                            <path id="Path_269" data-name="Path 269" d="M308.01,123.47c.16.48,1.92.31,3.98.63,2.07.27,3.71.93,4,.51.13-.2-.15-.66-.81-1.15a6.673,6.673,0,0,0-2.94-1.13,6.784,6.784,0,0,0-3.14.27C308.34,122.88,307.95,123.25,308.01,123.47Z" transform="translate(-308.004 -122.26)" fill="#263238"/>
                                          </g>
                                        </g>
                                      </g>
                                    </g>
                                  </g>
                                </g>
                              </g>
                            </g>
                          </g>
                        </g>
                      </g>
                      <g id="Group_101" data-name="Group 101" transform="translate(0 0.46)">
                        <g id="Group_100" data-name="Group 100">
                          <g id="Group_99" data-name="Group 99">
                            <g id="Group_98" data-name="Group 98">
                              <g id="Group_97" data-name="Group 97">
                                <g id="Group_96" data-name="Group 96">
                                  <g id="Group_95" data-name="Group 95">
                                    <g id="Group_94" data-name="Group 94">
                                      <g id="Group_93" data-name="Group 93">
                                        <g id="Group_92" data-name="Group 92">
                                          <g id="Group_91" data-name="Group 91">
                                            <path id="Path_270" data-name="Path 270" d="M291.75,124.45c.3.41,1.52.03,2.98.06,1.46-.03,2.69.35,2.98-.06.13-.2-.05-.61-.58-1a4.31,4.31,0,0,0-4.8,0C291.81,123.84,291.62,124.25,291.75,124.45Z" transform="translate(-291.71 -122.72)" fill="#263238"/>
                                          </g>
                                        </g>
                                      </g>
                                    </g>
                                  </g>
                                </g>
                              </g>
                            </g>
                          </g>
                        </g>
                      </g>
                    </g>
                  </g>
                  <g id="Group_110" data-name="Group 110" transform="translate(27.293 40.185)">
                    <g id="Group_109" data-name="Group 109">
                      <g id="Group_108" data-name="Group 108">
                        <g id="Group_107" data-name="Group 107">
                          <g id="Group_106" data-name="Group 106">
                            <g id="Group_105" data-name="Group 105">
                              <g id="Group_104" data-name="Group 104">
                                <path id="Path_271" data-name="Path 271" d="M307.55,137.86a.465.465,0,1,0,.45-.48A.468.468,0,0,0,307.55,137.86Z" transform="translate(-307.55 -137.38)" fill="#eb996e"/>
                              </g>
                            </g>
                          </g>
                        </g>
                      </g>
                    </g>
                  </g>
                  <g id="Group_117" data-name="Group 117" transform="translate(14.023 38.345)">
                    <g id="Group_116" data-name="Group 116">
                      <g id="Group_115" data-name="Group 115">
                        <g id="Group_114" data-name="Group 114">
                          <g id="Group_113" data-name="Group 113">
                            <g id="Group_112" data-name="Group 112">
                              <g id="Group_111" data-name="Group 111">
                                <path id="Path_272" data-name="Path 272" d="M294.28,136.02a.465.465,0,1,0,.45-.48A.455.455,0,0,0,294.28,136.02Z" transform="translate(-294.28 -135.54)" fill="#eb996e"/>
                              </g>
                            </g>
                          </g>
                        </g>
                      </g>
                    </g>
                  </g>
                  <g id="Group_124" data-name="Group 124" transform="translate(11.483 39.645)">
                    <g id="Group_123" data-name="Group 123">
                      <g id="Group_122" data-name="Group 122">
                        <g id="Group_121" data-name="Group 121">
                          <g id="Group_120" data-name="Group 120">
                            <g id="Group_119" data-name="Group 119">
                              <g id="Group_118" data-name="Group 118">
                                <path id="Path_273" data-name="Path 273" d="M291.74,137.32a.465.465,0,1,0,.45-.48A.461.461,0,0,0,291.74,137.32Z" transform="translate(-291.74 -136.84)" fill="#eb996e"/>
                              </g>
                            </g>
                          </g>
                        </g>
                      </g>
                    </g>
                  </g>
                  <g id="Group_131" data-name="Group 131" transform="translate(10.634 37.715)">
                    <g id="Group_130" data-name="Group 130">
                      <g id="Group_129" data-name="Group 129">
                        <g id="Group_128" data-name="Group 128">
                          <g id="Group_127" data-name="Group 127">
                            <g id="Group_126" data-name="Group 126">
                              <g id="Group_125" data-name="Group 125">
                                <path id="Path_274" data-name="Path 274" d="M290.89,135.39a.465.465,0,1,0,.45-.48A.468.468,0,0,0,290.89,135.39Z" transform="translate(-290.89 -134.91)" fill="#eb996e"/>
                              </g>
                            </g>
                          </g>
                        </g>
                      </g>
                    </g>
                  </g>
                  <g id="Group_138" data-name="Group 138" transform="translate(29.503 42.175)">
                    <g id="Group_137" data-name="Group 137">
                      <g id="Group_136" data-name="Group 136">
                        <g id="Group_135" data-name="Group 135">
                          <g id="Group_134" data-name="Group 134">
                            <g id="Group_133" data-name="Group 133">
                              <g id="Group_132" data-name="Group 132">
                                <path id="Path_275" data-name="Path 275" d="M309.76,139.85a.465.465,0,1,0,.45-.48A.461.461,0,0,0,309.76,139.85Z" transform="translate(-309.76 -139.37)" fill="#eb996e"/>
                              </g>
                            </g>
                          </g>
                        </g>
                      </g>
                    </g>
                  </g>
                  <g id="Group_145" data-name="Group 145" transform="translate(31.184 40.245)">
                    <g id="Group_144" data-name="Group 144">
                      <g id="Group_143" data-name="Group 143">
                        <g id="Group_142" data-name="Group 142">
                          <g id="Group_141" data-name="Group 141">
                            <g id="Group_140" data-name="Group 140">
                              <g id="Group_139" data-name="Group 139">
                                <path id="Path_276" data-name="Path 276" d="M311.44,137.92a.465.465,0,1,0,.45-.48A.461.461,0,0,0,311.44,137.92Z" transform="translate(-311.44 -137.44)" fill="#eb996e"/>
                              </g>
                            </g>
                          </g>
                        </g>
                      </g>
                    </g>
                  </g>
                  <g id="Group_152" data-name="Group 152" transform="translate(23.484 7.471)">
                    <g id="Group_151" data-name="Group 151">
                      <g id="Group_150" data-name="Group 150">
                        <g id="Group_149" data-name="Group 149">
                          <g id="Group_148" data-name="Group 148">
                            <g id="Group_147" data-name="Group 147">
                              <g id="Group_146" data-name="Group 146">
                                <path id="Path_277" data-name="Path 277" d="M303.74,108.72a22.089,22.089,0,0,1,23.59-1.2c7.25,4.27,11.2,10.43,11.58,20.59v12.95c-.38,5.9.88,9.32-2.02,10.31-3.96,1.36-7.02,12.12-10.42,11.37-4.21-3.27-4.27-5.18-4.42-11.87-.16-7.19-2.32-15.74.5-20.37-9.3-2.77-16.72-11.67-18.14-21.78" transform="translate(-303.74 -104.666)" fill="#263238"/>
                              </g>
                            </g>
                          </g>
                        </g>
                      </g>
                    </g>
                  </g>
                  <g id="Group_160" data-name="Group 160" transform="translate(10.424)">
                    <g id="Group_159" data-name="Group 159">
                      <g id="Group_158" data-name="Group 158">
                        <g id="Group_157" data-name="Group 157">
                          <g id="Group_156" data-name="Group 156">
                            <g id="Group_155" data-name="Group 155">
                              <g id="Group_154" data-name="Group 154">
                                <g id="Group_153" data-name="Group 153">
                                  <path id="Path_278" data-name="Path 278" d="M290.68,97.21c0,.07,1.1.07,2.81.46a13.417,13.417,0,0,1,1.38.39,15.011,15.011,0,0,1,1.54.59,18.653,18.653,0,0,1,3.25,1.89,19.07,19.07,0,0,1,2.76,2.56c.36.45.73.87,1.01,1.3a13.546,13.546,0,0,1,.78,1.21c.88,1.52,1.2,2.58,1.26,2.56a3.71,3.71,0,0,0-.22-.74,7.515,7.515,0,0,0-.33-.84,10.6,10.6,0,0,0-.53-1.08,10.129,10.129,0,0,0-.76-1.24,16.034,16.034,0,0,0-1-1.34,18.106,18.106,0,0,0-2.79-2.62,18.316,18.316,0,0,0-3.32-1.91,15.106,15.106,0,0,0-1.57-.57,11.258,11.258,0,0,0-1.41-.36,10.566,10.566,0,0,0-1.18-.19,6.413,6.413,0,0,0-.9-.07A3.864,3.864,0,0,0,290.68,97.21Z" transform="translate(-290.68 -97.195)" fill="#455a64"/>
                                </g>
                              </g>
                            </g>
                          </g>
                        </g>
                      </g>
                    </g>
                  </g>
                  <g id="Group_168" data-name="Group 168" transform="translate(0 10.424)">
                    <g id="Group_167" data-name="Group 167">
                      <g id="Group_166" data-name="Group 166">
                        <g id="Group_165" data-name="Group 165">
                          <g id="Group_164" data-name="Group 164">
                            <g id="Group_163" data-name="Group 163">
                              <g id="Group_162" data-name="Group 162">
                                <g id="Group_161" data-name="Group 161">
                                  <path id="Path_279" data-name="Path 279" d="M283.25,146s-.03-.04-.09-.11-.17-.18-.28-.3c-.24-.27-.61-.65-1.03-1.19a6.976,6.976,0,0,1-1.2-2.15,3.926,3.926,0,0,1-.17-1.51,4.207,4.207,0,0,1,.52-1.62,28.7,28.7,0,0,1,2.41-3.18,18.04,18.04,0,0,0,2.27-4.04,18.292,18.292,0,0,0,1.23-4.97,37.227,37.227,0,0,0-.05-5.48,18.9,18.9,0,0,1,.32-5.4,10.769,10.769,0,0,1,2.29-4.43,10.993,10.993,0,0,1,3.57-2.78,10.162,10.162,0,0,1,3.81-1.01,11.384,11.384,0,0,1,5.61,1.04,10.276,10.276,0,0,1,1.37.77c.14.09.25.17.34.23s.12.07.12.07a7.883,7.883,0,0,0-1.79-1.16,11.211,11.211,0,0,0-5.68-1.14,10.712,10.712,0,0,0-3.91,1,11.272,11.272,0,0,0-6.03,7.35,19.163,19.163,0,0,0-.33,5.48,36.738,36.738,0,0,1,.05,5.44,18.151,18.151,0,0,1-1.19,4.89,17.742,17.742,0,0,1-2.21,3.99,27.983,27.983,0,0,0-2.4,3.23,4.364,4.364,0,0,0-.53,1.7,3.816,3.816,0,0,0,.2,1.57,6.864,6.864,0,0,0,1.27,2.17,13.854,13.854,0,0,0,1.08,1.16c.12.11.22.21.3.28S283.25,146.01,283.25,146Z" transform="translate(-280.256 -107.619)" fill="#455a64"/>
                                </g>
                              </g>
                            </g>
                          </g>
                        </g>
                      </g>
                    </g>
                  </g>
                </g>
              </g>
            </g>
            <g id="Group_181" data-name="Group 181" transform="translate(11.488 33.434)">
              <g id="Group_180" data-name="Group 180">
                <g id="Group_179" data-name="Group 179">
                  <g id="Group_178" data-name="Group 178">
                    <g id="Group_177" data-name="Group 177">
                      <g id="Group_176" data-name="Group 176">
                        <g id="Group_175" data-name="Group 175">
                          <g id="Group_174" data-name="Group 174">
                            <g id="Group_173" data-name="Group 173">
                              <g id="Group_172" data-name="Group 172">
                                <path id="Path_280" data-name="Path 280" d="M291.77,132.28c.2.22,1.45-.67,3.21-.63,1.75.01,3.02.94,3.22.73.1-.09-.1-.48-.66-.9a4.474,4.474,0,0,0-2.57-.85,4.3,4.3,0,0,0-2.56.77C291.86,131.8,291.67,132.18,291.77,132.28Z" transform="translate(-291.744 -130.629)" fill="#263238"/>
                              </g>
                            </g>
                          </g>
                        </g>
                      </g>
                    </g>
                  </g>
                </g>
              </g>
            </g>
            <g id="Group_191" data-name="Group 191" transform="translate(29.418 33.724)">
              <g id="Group_190" data-name="Group 190">
                <g id="Group_189" data-name="Group 189">
                  <g id="Group_188" data-name="Group 188">
                    <g id="Group_187" data-name="Group 187">
                      <g id="Group_186" data-name="Group 186">
                        <g id="Group_185" data-name="Group 185">
                          <g id="Group_184" data-name="Group 184">
                            <g id="Group_183" data-name="Group 183">
                              <g id="Group_182" data-name="Group 182">
                                <path id="Path_281" data-name="Path 281" d="M309.7,132.57c.2.22,1.45-.67,3.21-.63,1.75.01,3.02.94,3.22.73.09-.09-.1-.48-.66-.9a4.474,4.474,0,0,0-2.57-.85,4.3,4.3,0,0,0-2.56.77C309.79,132.09,309.6,132.47,309.7,132.57Z" transform="translate(-309.674 -130.919)" fill="#263238"/>
                              </g>
                            </g>
                          </g>
                        </g>
                      </g>
                    </g>
                  </g>
                </g>
              </g>
            </g>
            <g id="Group_200" data-name="Group 200" transform="translate(18.362 31.354)">
              <g id="Group_199" data-name="Group 199">
                <g id="Group_198" data-name="Group 198">
                  <g id="Group_197" data-name="Group 197">
                    <g id="Group_196" data-name="Group 196">
                      <g id="Group_195" data-name="Group 195">
                        <g id="Group_194" data-name="Group 194">
                          <g id="Group_193" data-name="Group 193">
                            <g id="Group_192" data-name="Group 192">
                              <path id="Path_282" data-name="Path 282" d="M303.07,143.16a11.607,11.607,0,0,0-2.84-.57c-.45-.06-.87-.15-.94-.46a2.242,2.242,0,0,1,.33-1.32c.44-1.08.91-2.2,1.39-3.39,1.94-4.82,3.35-8.79,3.15-8.87s-1.92,3.77-3.86,8.6c-.47,1.19-.91,2.32-1.34,3.41a2.623,2.623,0,0,0-.27,1.75,1.109,1.109,0,0,0,.72.67,3.379,3.379,0,0,0,.76.12A11.486,11.486,0,0,0,303.07,143.16Z" transform="translate(-298.618 -128.549)" fill="#263238"/>
                            </g>
                          </g>
                        </g>
                      </g>
                    </g>
                  </g>
                </g>
              </g>
            </g>
            <g id="Group_208" data-name="Group 208" transform="translate(23.296 49.069)">
              <g id="Group_207" data-name="Group 207">
                <g id="Group_206" data-name="Group 206">
                  <g id="Group_205" data-name="Group 205">
                    <g id="Group_204" data-name="Group 204">
                      <g id="Group_203" data-name="Group 203">
                        <g id="Group_202" data-name="Group 202">
                          <g id="Group_201" data-name="Group 201">
                            <path id="Path_283" data-name="Path 283" d="M303.73,147.41a3.17,3.17,0,0,1,2.86-1.12,2.891,2.891,0,0,1,1.97,1.11,1.843,1.843,0,0,1,.1,2.1,2.125,2.125,0,0,1-2.31.54,6.714,6.714,0,0,1-2.22-1.38,1.89,1.89,0,0,1-.49-.53.588.588,0,0,1,.02-.65" transform="translate(-303.553 -146.264)" fill="#e8505b"/>
                          </g>
                        </g>
                      </g>
                    </g>
                  </g>
                </g>
              </g>
            </g>
            <g id="Group_217" data-name="Group 217" transform="translate(22.272 47.285)">
              <g id="Group_216" data-name="Group 216">
                <g id="Group_215" data-name="Group 215">
                  <g id="Group_214" data-name="Group 214">
                    <g id="Group_213" data-name="Group 213">
                      <g id="Group_212" data-name="Group 212">
                        <g id="Group_211" data-name="Group 211">
                          <g id="Group_210" data-name="Group 210">
                            <g id="Group_209" data-name="Group 209">
                              <path id="Path_284" data-name="Path 284" d="M308.21,144.48c-.29-.02-.33,1.88-1.98,3.2s-3.68,1.07-3.7,1.34c-.03.12.45.38,1.3.42a4.724,4.724,0,0,0,3.09-1.01,4.139,4.139,0,0,0,1.54-2.69C308.55,144.95,308.34,144.47,308.21,144.48Z" transform="translate(-302.529 -144.48)" fill="#263238"/>
                            </g>
                          </g>
                        </g>
                      </g>
                    </g>
                  </g>
                </g>
              </g>
            </g>
          </g>
          <g id="Group_220" data-name="Group 220" transform="translate(29.977 11.758)">
            <g id="Group_219" data-name="Group 219">
              <path id="Path_285" data-name="Path 285" d="M338.27,124.55a6.955,6.955,0,0,1-1.46.31,26.9,26.9,0,0,1-4.07.28A29.774,29.774,0,0,1,309.3,113.6a25.754,25.754,0,0,1-2.26-3.4,6.773,6.773,0,0,1-.65-1.35,9.473,9.473,0,0,1,.82,1.24,33.3,33.3,0,0,0,2.38,3.27,30.838,30.838,0,0,0,23.16,11.4,35.46,35.46,0,0,0,4.04-.11A10.054,10.054,0,0,1,338.27,124.55Z" transform="translate(-306.387 -108.849)" fill="#455a64"/>
            </g>
          </g>
          <g id="Group_222" data-name="Group 222" transform="translate(29.366 11.218)">
            <g id="Group_221" data-name="Group 221">
              <path id="Path_286" data-name="Path 286" d="M334.77,152.98c-.04-.03.57-.67,1.43-1.98a16.293,16.293,0,0,0,2.39-6.11,14.243,14.243,0,0,0-1.82-9.38,15.668,15.668,0,0,0-3.72-4.34,18.791,18.791,0,0,0-5.46-2.86c-2.01-.72-4.04-1.28-5.95-1.99a25.334,25.334,0,0,1-5.25-2.66,26.047,26.047,0,0,1-7.03-6.99,24.316,24.316,0,0,1-2.97-5.99,13.169,13.169,0,0,1-.49-1.75,3.161,3.161,0,0,1-.12-.62c.06-.02.24.84.8,2.31a26.449,26.449,0,0,0,3.08,5.85,26.13,26.13,0,0,0,6.99,6.8,25.385,25.385,0,0,0,5.16,2.58c1.89.7,3.91,1.25,5.95,1.98a19.092,19.092,0,0,1,5.6,2.95,15.884,15.884,0,0,1,3.82,4.5,14.513,14.513,0,0,1,1.76,9.68,15.656,15.656,0,0,1-2.58,6.16,14.888,14.888,0,0,1-1.14,1.42A3.065,3.065,0,0,1,334.77,152.98Z" transform="translate(-305.776 -108.31)" fill="#455a64"/>
            </g>
          </g>
          <g id="Group_224" data-name="Group 224" transform="translate(10.117 56.938)">
            <g id="Group_223" data-name="Group 223">
              <path id="Path_287" data-name="Path 287" d="M300.09,162.9c.01.03-.23.12-.68.21a8.485,8.485,0,0,1-1.93.13,12.478,12.478,0,0,1-6.02-1.95,11.271,11.271,0,0,1-4.19-4.74,9.375,9.375,0,0,1-.64-1.82,1.765,1.765,0,0,1-.09-.7c.09-.02.31.96,1.06,2.35a11.932,11.932,0,0,0,4.14,4.46,13.435,13.435,0,0,0,5.77,2.02C299.09,163.03,300.08,162.81,300.09,162.9Z" transform="translate(-286.527 -154.03)" fill="#455a64"/>
            </g>
          </g>
        </g>
      </g>
    </g>
    <g id="Character_1" transform="translate(87.983 109.212)">
      <g id="Group_228" data-name="Group 228" transform="translate(11.66 183.738)">
        <g id="Group_227" data-name="Group 227">
          <path id="Path_288" data-name="Path 288" d="M346.38,374.08c0,.14-41.64.26-93,.26-51.38,0-93.01-.12-93.01-.26s41.64-.26,93.01-.26S346.38,373.93,346.38,374.08Z" transform="translate(-160.37 -373.82)" fill="#263238"/>
        </g>
      </g>
      <g id="Group_236" data-name="Group 236">
        <path id="Path_289" data-name="Path 289" d="M240.83,217.83c.48-.19,1.09-.35,1.47,0a1.38,1.38,0,0,1,.32.61,17.171,17.171,0,0,1,.49,4.17c.03.91-.03,2.01-.81,2.48a1.374,1.374,0,0,1-1.97-.87Z" transform="translate(-148.71 -190.082)" fill="#cc9970"/>
        <g id="Group_235" data-name="Group 235">
          <path id="Path_290" data-name="Path 290" d="M313.22,368.89q8.85,18,17.69,35.99c3.73,7.58,2.26,18.57-6.72,20.91-6.8,1.77-14.07-4.26-19.46-9.83a52.7,52.7,0,0,1-7.02-9.73c-5.32-8.84-10.23-17.96-12.95-27.47a8.74,8.74,0,0,1,.81-7.16c.7-1.21,5.04-6.57,6.69-6.29C292.26,365.3,313.22,368.89,313.22,368.89Z" transform="translate(-148.71 -190.082)" fill="#cc9970"/>
          <g id="Group_233" data-name="Group 233">
            <path id="Path_291" data-name="Path 291" d="M308.95,871.4a4.425,4.425,0,0,1-2.95,1.26c-3.18.51-6.43,1.05-9.66,1.47-10.69,1.43-21.43,1.85-30.96-1.87-3.16-1.24-6.18-2.92-9.62-3.3-6.79-.73-15.23,2.85-16.61-5.52-.73-4.38.89-11.61,2.15-17.95.54-2.78,1.03-5.41,1.22-7.51.47-5.36,28.27-7.49,33.16-7.49-4.12.28,2.27,10.97,3.14,12.24a34.718,34.718,0,0,0,15.84,12.64c3.79,1.52,8.03,2.55,10.81,5.45a18.521,18.521,0,0,1,3.58,6.48C309.51,868.62,309.91,870.26,308.95,871.4Z" transform="translate(-148.71 -190.082)" fill="#373d46"/>
            <path id="Path_292" data-name="Path 292" d="M296.34,874.14c-10.69,1.43-21.43,1.85-30.96-1.87-3.16-1.24-6.18-2.92-9.62-3.3-6.79-.73-15.23,2.85-16.61-5.52-.73-4.38.89-11.61,2.15-17.95,3.6,4.24,9.5,5.64,14.51,8.12,5.71,2.81,10.51,7.18,15.7,10.9,5.19,3.7,11.18,6.88,17.55,6.76a14.162,14.162,0,0,1,4.87.23A3.624,3.624,0,0,1,296.34,874.14Z" transform="translate(-148.71 -190.082)" fill="#484e56"/>
            <path id="Path_293" data-name="Path 293" d="M305.28,521.09c-7.18,106.56-18.09,212.09-20.24,318.63a145.8,145.8,0,0,1-24.52,4.96,136.07,136.07,0,0,1-25.27.42c.54,0,1.08-3.25,1.59-8.68,2.55-26.72,4.47-106.58,3.81-115.17-1.4-18.23-2.08-36.5-3.07-54.75-.28-5.31-.58-10.6-.94-15.91-1.5-22.14.05-43.03.51-65.4.28-13.99-.02-28.2,3.49-41.74,5.19-20.1,19.89-35.08,40.74-38.23C293.58,503.38,306.31,506.56,305.28,521.09Z" transform="translate(-148.71 -190.082)" fill="#63857c"/>
            <path id="Path_294" data-name="Path 294" d="M260.52,844.68a136.07,136.07,0,0,1-25.27.42c.54,0,1.08-3.25,1.59-8.68,2.55-26.72,4.47-106.58,3.81-115.17-1.4-18.23-2.08-36.5-3.07-54.75,15.09,27.94,20.69,60.23,22.35,92.01C261.43,787.19,259.98,815.97,260.52,844.68Z" transform="translate(-148.71 -190.082)" fill="#6e8e82"/>
            <path id="Path_295" data-name="Path 295" d="M213.76,875.59c-7.09,7.14-35.59,6.41-40.36-3.14-1.19-2.34-.96-5.22,1.4-8.63a40.369,40.369,0,0,1,4.03-4.26,15.652,15.652,0,0,0,3.49-6.15c1.92-6.22.61-13.52.73-19.66-.02.89,15.98-1.17,17.18-1.31,2.08-.26,9.27-2.39,11-1.4a4.006,4.006,0,0,1,.84.63c3.81,3.7-.58,12.85-.12,17.74C212.69,857.2,221.3,868.01,213.76,875.59Z" transform="translate(-148.71 -190.082)" fill="#373d46"/>
            <path id="Path_296" data-name="Path 296" d="M254.67,566.79c-8.75,56.88-19.73,113.49-25.67,170.58-3.77,36.01-11.28,71.44-13.17,107.36-.16,4.17-20.22,5.08-32.76,5.17-4.87.07-8.61-.02-9.62-.09-.05-1.59-.09-3.18-.14-4.75-.47-18.46-.82-36.95.63-55.48,1.78-23,6.22-45.89,8.73-68.89,1.73-15.7,1.54-32.38,2.08-48.23.96-29.09-3.6-57.96-4.87-86.98-.63-14.76-3.51-36.36.05-53.91,1.47-7.39,4.09-14.06,8.52-19.21,11.4-13.27,34.54-21.74,50.89-13.01C264.07,512.53,258.13,544.4,254.67,566.79Z" transform="translate(-148.71 -190.082)" fill="#6e8e82"/>
            <path id="Path_297" data-name="Path 297" d="M203.14,692.54c-2.29,11.82-5.34,23.47-7.96,35.19A505.479,505.479,0,0,0,183.06,849.9c-4.87.07-8.61-.02-9.62-.09-.05-1.59-.09-3.18-.14-4.75-.47-18.46-.82-36.95.63-55.48,1.78-23,6.22-45.89,8.73-68.89,1.73-15.7,1.54-32.38,2.08-48.23.96-29.09-3.6-57.96-4.87-86.98-.63-14.76-3.51-36.36.05-53.91,8.47,9.97,16.75,20.31,21.36,32.5,3.58,9.45,4.77,19.66,5.62,29.72C209.72,626.72,209.39,660.11,203.14,692.54Z" transform="translate(-148.71 -190.082)" fill="#7e9b90"/>
            <path id="Path_298" data-name="Path 298" d="M284.68,305.13c11.42,8.16,15.31,22.59,20.42,35.74,5.47,14.09,11.1,28.76,14.21,43.58.14.66-6.96,3.85-7.57,4.12a54.756,54.756,0,0,1-9.49,3.16,53.736,53.736,0,0,1-20.37.84c-.56-.1-.58-11.03-.6-12-.09-4.6,0-9.19.18-13.79.36-9.13,1.08-18.24,1.39-27.37.22-6.39,1.4-12.64.77-19.01-.39-3.85-.71-7.39-2.18-11.04-.79-1.97-3.08-7.83-5.27-8.57A33.044,33.044,0,0,1,284.68,305.13Z" transform="translate(-148.71 -190.082)" fill="#6e8e82"/>
            <path id="Path_299" data-name="Path 299" d="M311.62,529.59a35.053,35.053,0,0,1-10.95,5.92,66.122,66.122,0,0,1-9.64,2.25c-9.24,1.61-18.56,2.76-27.89,3.46a287.262,287.262,0,0,1-31.47.7c-6.9-.23-13.81-.68-20.68-1.4-3.37-.35-6.72-.75-10.06-1.24-8.99-1.31-18.11-1.73-27.12-3.32-5.97-1.05,6.18-41.07,7.18-44.76,3.02-11.18,6.27-22.32,9.2-33.55a132.451,132.451,0,0,0,3.98-43.31c-.19-2.53-.42-5.03-.7-7.53-1.05-9.8-2.64-19.56-3.93-29.34l-.44,2.85s-10.72-72.56-12.54-71.37c-1.57,1.05,2.69-2.22,11.16-6.65a35.931,35.931,0,0,1,4.89-2.43c3.53-1.5,7.23-2.67,9.2-3.44a169.976,169.976,0,0,1,22.39-6.93,39.1,39.1,0,0,1,6.81-1.26c5.26-.42,10.58.61,15.86,2.11,4.45,1.26,8.89,2.88,13.22,4.21,6.79,2.11,16.66,4.87,21.27,10.46,4.87,5.92,7.28,13.34,9.13,20.64,2.01,8.03,5.66,15.96,8.47,23.8a81.816,81.816,0,0,1,3.95,13.5c1.61,9.5-.21,19.21-2.08,28.69-1.99,10.02-4.05,20.05-5.03,30.23-1.99,20.5,1.01,39.83,5.38,59.83,1.03,4.68,2.04,9.34,3.07,14.02Q307.895,512.605,311.62,529.59Z" transform="translate(-148.71 -190.082)" fill="#6e8e82"/>
            <path id="Path_300" data-name="Path 300" d="M223.33,480.47c-3.77,3.39-10.01.7-14.72,2.6-6.06,2.43-6.67,10.62-6.01,17.1a205,205,0,0,0,8.38,40.34c-3.37-.35-6.72-.75-10.06-1.24-8.99-1.31-18.11-1.73-27.12-3.32-5.97-1.05,6.18-41.07,7.18-44.76,3.02-11.18,6.27-22.32,9.2-33.55a132.451,132.451,0,0,0,3.98-43.31c-.19-2.53-.42-5.03-.7-7.53l1.12-1.66a124.927,124.927,0,0,0,25.46,59.32C223.78,469.17,227.8,476.4,223.33,480.47Z" transform="translate(-148.71 -190.082)" fill="#7e9b90"/>
            <path id="Path_301" data-name="Path 301" d="M311.62,529.59a35.053,35.053,0,0,1-10.95,5.92,66.122,66.122,0,0,1-9.64,2.25c-9.24,1.61-18.56,2.76-27.89,3.46,2.17-14.82-3.22-29.67-3.44-44.57q-.4-26.94.81-53.88c.27-5.97,3.04-13.89,2.05-19.58-1.16-6.64-8.49-12.22-13.97-15.19-7.44-4.03-15.82-6.17-23.15-10.4-2.48-1.43-5.16-4.1-3.99-6.72.64-1.43,2.22-2.16,3.67-2.76,11.74-4.81,24.09-8.94,36.78-8.81,4.32.04,8.8.55,12.81-1.06,12.51-5.03,8.74-15.65,2.17-23.54-4.48-5.38-6.63-11.45-9.73-17.54-3.63-7.15-8.12-14-12.12-20.96l-8.61-22.25a6.866,6.866,0,0,1,.44-3.65c4.45,1.26,8.89,2.88,13.22,4.21,6.79,2.11,16.66,4.87,21.27,10.46,4.87,5.92,7.28,13.34,9.13,20.64,2.01,8.03,5.66,15.96,8.47,23.8a81.816,81.816,0,0,1,3.95,13.5c1.61,9.5-.21,19.21-2.08,28.69-1.99,10.02-4.05,20.05-5.03,30.23-1.99,20.5,1.01,39.83,5.38,59.83,1.03,4.68,2.04,9.34,3.07,14.02Q307.9,512.625,311.62,529.59Z" transform="translate(-148.71 -190.082)" fill="#63857c"/>
            <path id="Path_302" data-name="Path 302" d="M209.04,272.5c-4.43-11.08-4.65-26.35,7.26-35.88.12-3.64.25-7.08.2-10.05-.06-3.16-.29-7.44-3.08-9.35a4.712,4.712,0,0,0-2.09-.97,3.618,3.618,0,0,0-2.79,1.26c-2.16,2.21-2.4,5.3-3.23,8.11-1.03,3.49-2.49,6.82-3.23,10.4a74.782,74.782,0,0,0-1.1,23.12c.52,4.73,1.62,9.69,4.9,13.14a12.956,12.956,0,0,0,6.26,3.59C210.86,274.57,209.81,273.27,209.04,272.5Z" transform="translate(-148.71 -190.082)" fill="#7e9b90"/>
            <path id="Path_303" data-name="Path 303" d="M219.4,275.61c1.89-.64,3.85-2.13,3.75-4.12-.06-1.3-.99-2.37-1.76-3.42-5.64-7.67-5.44-20.49-5.09-31.45-11.91,9.54-11.7,24.8-7.26,35.88.78.78,1.82,2.07,3.11,3.37A13.053,13.053,0,0,0,219.4,275.61Z" transform="translate(-148.71 -190.082)" fill="#6e8e82"/>
            <path id="Path_304" data-name="Path 304" d="M260.23,326.9c-.02.02-.02.02-.05.02-.8.68-1.99.47-2.97.21-9.85-2.55-18.49-8.21-26.35-14.48-3.44-2.76-7.79-5.59-10.09-9.38-.61-.98-6.2-11.47-4.33-12.03.94-.28,1.9-.56,2.85-.84,1.22-3.07,1.29-6.58,1.26-9.94q-.075-11.865-1.15-23.75l5.64,2.46,31.05,13.6a136.9,136.9,0,0,0-.82,23.19c3.28,6.27,5.76,11.51,6.27,18.53C261.8,317.77,263.23,324.3,260.23,326.9Z" transform="translate(-148.71 -190.082)" fill="#cc9970"/>
            <path id="Path_305" data-name="Path 305" d="M260.23,326.9c-.02.02-.02.02-.05.02a117.665,117.665,0,0,0-13.83-17.08,52.308,52.308,0,0,1-6.2-6.95,52.8,52.8,0,0,1-4.05-7.84,137.108,137.108,0,0,0-12.96-22.46l1.92-13.43,31.05,13.6a136.9,136.9,0,0,0-.82,23.19c3.28,6.27,5.76,11.51,6.27,18.53C261.8,317.77,263.23,324.3,260.23,326.9Z" transform="translate(-148.71 -190.082)" fill="#c18965"/>
            <g id="Group_232" data-name="Group 232" transform="translate(56.674)">
              <g id="Group_231" data-name="Group 231" transform="translate(0 5.973)">
                <path id="Path_306" data-name="Path 306" d="M269.37,215.64a269.949,269.949,0,0,0,1.37,26.99,61.752,61.752,0,0,1,.43,6.37,59.5,59.5,0,0,1-4.33,22.63,24.879,24.879,0,0,1-9.98,11.76c-8.14,4.82-18.9,3.06-26.92-2.14-6.61-4.28-14.83-13.13-14.87-21.41-10.69,1.05-13.86-25.68-2.68-20.76-.93-.41-.48-8.27-.53-9.32-.27-5.44-.71-10.73-.01-16.14a16.555,16.555,0,0,1,2.32-7.34c1.73-2.53,4.54-4.05,7.26-5.49a41.12,41.12,0,0,1,8.94-3.85,36.686,36.686,0,0,1,8.32-.88c7.38-.13,12.9,2,19.62,4.85C264.23,203.45,269.35,209.07,269.37,215.64Z" transform="translate(-205.384 -196.054)" fill="#e9b182"/>
                <g id="Group_229" data-name="Group 229" transform="translate(25.234 42.413)">
                  <path id="Path_307" data-name="Path 307" d="M234.57,240.69c.24,1.33.67,3.65-.72,4.48-1.7,1.01-3.2-.76-3.23-2.35-.03-1.41.18-4.77,2.42-4.31C233.97,238.7,234.41,239.76,234.57,240.69Z" transform="translate(-230.618 -238.467)" fill="#313131"/>
                  <path id="Path_308" data-name="Path 308" d="M231.54,239.97c-.96,1.39,1.48,2.56,1.42.51a.873.873,0,0,0-.64-.84A.8.8,0,0,0,231.54,239.97Z" transform="translate(-230.618 -238.467)" fill="#fff"/>
                </g>
                <g id="Group_230" data-name="Group 230" transform="translate(50.613 42.413)">
                  <path id="Path_309" data-name="Path 309" d="M259.95,240.69c.24,1.33.67,3.65-.72,4.48-1.7,1.01-3.2-.76-3.23-2.35-.03-1.41.18-4.77,2.42-4.31C259.34,238.7,259.78,239.76,259.95,240.69Z" transform="translate(-255.998 -238.467)" fill="#313131"/>
                  <path id="Path_310" data-name="Path 310" d="M257.06,239.97c-.96,1.39,1.48,2.56,1.42.51a.873.873,0,0,0-.64-.84A.8.8,0,0,0,257.06,239.97Z" transform="translate(-255.998 -238.467)" fill="#fff"/>
                </g>
                <path id="Path_311" data-name="Path 311" d="M232.19,233.87a24.929,24.929,0,0,1,6.04-.31c.55.04,1.27-.03,1.4-.56.12-.5-.42-.89-.89-1.09a9.9,9.9,0,0,0-11.3,2.64,1.142,1.142,0,0,0-.27.46.465.465,0,0,0,.15.49.651.651,0,0,0,.34.07c.88,0,1.19-.49,1.86-.89A8.194,8.194,0,0,1,232.19,233.87Z" transform="translate(-205.384 -196.054)" fill="#694f34"/>
                <path id="Path_312" data-name="Path 312" d="M260.56,233.87a24.929,24.929,0,0,0-6.04-.31c-.55.04-1.27-.03-1.4-.56-.12-.5.42-.89.89-1.09a9.9,9.9,0,0,1,11.3,2.64,1.142,1.142,0,0,1,.27.46.465.465,0,0,1-.15.49.651.651,0,0,1-.34.07c-.88,0-1.19-.49-1.86-.89A8.194,8.194,0,0,0,260.56,233.87Z" transform="translate(-205.384 -196.054)" fill="#694f34"/>
              </g>
              <path id="Path_313" data-name="Path 313" d="M218.1,229.59c-1,6.48-2.22,10.64-2.07,13.33s0,6.93,0,6.93l-.14-.05a4.328,4.328,0,0,1-2.85-3.7l-.64-7.02a4.653,4.653,0,0,0-1.35-.49c-.41-.05-.93.16-1.3-.03-.92-.48-1.22-2.86-1.33-3.77-.17-1.56.15-1.99,1.42-2.71,1.02-.57,2.07-1.12,3.14-1.6C214.24,229.91,216.74,228.64,218.1,229.59Z" transform="translate(-205.384 -190.082)" fill="#694f34"/>
              <path id="Path_314" data-name="Path 314" d="M270.39,237.84c-.3-3.56-1.31-6.58-3.98-8.96-11.14-9.94-24.1-7.39-37.3-3.35-.28.09-.58.19-.87.28a31.028,31.028,0,0,0-13.9,10.23,8.835,8.835,0,0,1-2.01,2.08c-1.68,1.03-3.81.61-5.71.16-.14-10.97-1.4-20.71,3.51-31.1,5.08-10.72,14.95-16.78,26.77-17.06,10.16-.26,22.14.61,29.32,8.82a25.21,25.21,0,0,1,3.79,5.85C275.33,215.87,274.13,231.03,270.39,237.84Z" transform="translate(-205.384 -190.082)" fill="#6e8e82"/>
            </g>
            <path id="Path_315" data-name="Path 315" d="M210.67,558.39c-.23,1.03-.96,1.43-2.48.4-2.6-1.73-4.59-3.53-5.48-6.48a42.756,42.756,0,0,0-1.5-4.66c-.44-.98-2.04-2.83-2.08-3.81.3,5.27-1.05,10.13-.16,15.44.94,5.59,3.37,11.04,5.26,16.43a2.843,2.843,0,0,1,.23,1.31,2.021,2.021,0,0,1-2.57,1.38,5.95,5.95,0,0,1-2.6-1.97c.8,1.12-.42,2.78-1.8,2.9a5.268,5.268,0,0,1-3.63-1.73,25.167,25.167,0,0,1-5.01-6.58c-.05.94-.09,1.9-.14,2.83-1.26.58-2.43-.94-3-2.2-5.99-13.71-9.59-29.41-11.47-44.25-.8-6.25-.37-12.33-1.85-18.56-.58-2.48-1.22-4.96-1.87-7.42a38.01,38.01,0,0,1,8.33-4.73,55.01,55.01,0,0,1,10.01-3.04c.73,8.47,2.22,16.71,6.06,24.08,3.32,6.34,9.17,10.18,11.77,17.29,1.8,4.84,1.97,10.06,2.88,15.09C209.76,551,211.26,556.17,210.67,558.39Z" transform="translate(-148.71 -190.082)" fill="#b8dabe"/>
            <path id="Path_316" data-name="Path 316" d="M183.81,423.38c-.68,13.59,1.38,27.14,3.18,40.57,1.26,9.43,1.03,19.73,1.9,29.72a56.961,56.961,0,0,0-9.55,2.85,38.427,38.427,0,0,0-8.8,4.91c-2.6-9.78-5.64-19.42-8.47-29.13-3.42-11.7-4.73-23.96-6.64-35.96a114.083,114.083,0,0,1-1.52-12.35,76.2,76.2,0,0,1,.7-14.23c.49-3.63.28-7.18.82-10.74a213.632,213.632,0,0,1,5.99-26.58c2.01-7.09,7.46-10.81,13.22-11,5.22-.21,10.67,2.55,13.97,8.42.05.09.09.19.14.28,1.94,3.58,1.61,8.7,1.31,12.66C189.01,396.58,184.47,409.71,183.81,423.38Z" transform="translate(-148.71 -190.082)" fill="#cc9970"/>
            <path id="Path_317" data-name="Path 317" d="M183.81,423.38c-.68,13.59,1.38,27.14,3.18,40.57,1.26,9.43,1.03,19.73,1.9,29.72a56.961,56.961,0,0,0-9.55,2.85c-7.75-24.52-10.09-50.73-10.97-76.54-.23-6.67-.42-13.52-3.09-19.66a39.637,39.637,0,0,0-6.65-9.97l16.01-28.92c5.22-.21,10.67,2.55,13.97,8.42.05.09.09.19.14.28,1.94,3.58,1.61,8.7,1.31,12.66C189.01,396.58,184.47,409.71,183.81,423.38Z" transform="translate(-148.71 -190.082)" fill="#c18965"/>
            <path id="Path_318" data-name="Path 318" d="M162.69,333.58c-1.41,4.38-2.61,8.7-3.75,12.5-4.5,14.97-7.51,30.55-10.23,45.9a72.58,72.58,0,0,0,46.4,7.93c-.12-7.27.59-15.06,1.1-22.37.9-12.88,1.5-25.79,1.32-38.7-.14-9.88-3.22-20.31-8.74-28.18a9.63,9.63,0,0,0-3.88-3.54c-2.71-1.16-6.01-.11-8.37,1.84C169.77,314.51,165.72,324.2,162.69,333.58Z" transform="translate(-148.71 -190.082)" fill="#809d93"/>
            <path id="Path_319" data-name="Path 319" d="M270.09,264.12c-.16.49-.37,1.03-.58,1.61-.49,1.38-1.01,2.78-1.57,4.17a43.229,43.229,0,0,1-4.33,8.35c-4.38,6.41-10.88,8.96-18.44,9.31a29.982,29.982,0,0,1-16.66-4.7c-3.88-2.39-8.87-5.8-8.92-10.86a26.358,26.358,0,0,1,.35-4.7,22.863,22.863,0,0,1,.8-3.67c.07-.21.12-.42.21-.63a24.457,24.457,0,0,1,1.1-2.97c.8-1.8,3.91-1.82,5.69-2.29a27.969,27.969,0,0,0,9.92-4.73c3.25-2.53,7.75-6.93,12.33-4.94,2.22.98,4.31,3.35,6.46,4.68,3.91,2.39,8.82,3.72,12.45,6.39C271.07,260.75,270.81,262.15,270.09,264.12Z" transform="translate(-148.71 -190.082)" fill="#b8dabe"/>
            <path id="Path_320" data-name="Path 320" d="M222.82,259.28c.67.96,1.09,1.97-.53,1.53a2.679,2.679,0,0,1-1.28-1.06,47.937,47.937,0,0,1-4.31-6.63c-1.17-2.18-1.96-4.5-3.11-6.67a15.547,15.547,0,0,1-1.21-5.8c0,.23.97.89,1.14,1.12a8.883,8.883,0,0,1,.88,1.74c.51,1.17.92,2.39,1.45,3.55.98,2.15,1.97,4.31,3.01,6.43a17.327,17.327,0,0,0,2.84,4.39C221.85,258.06,222.39,258.66,222.82,259.28Z" transform="translate(-148.71 -190.082)" fill="#fff"/>
            <path id="Path_321" data-name="Path 321" d="M215.07,259.85c.25,4.46,2.96,9.51,5.53,12.5.48.56.65,1.63-.02,1.93-.4.17-2.55-2.55-2.82-2.9a20.073,20.073,0,0,1-2.23-3.54c-1.29-2.63-1.62-5.43-2.45-8.2A3.149,3.149,0,0,0,215.07,259.85Z" transform="translate(-148.71 -190.082)" fill="#fff"/>
          </g>
          <g id="Group_234" data-name="Group 234" transform="translate(153.812 49.988)">
            <path id="Path_322" data-name="Path 322" d="M332.42,416.89c-1.83,4.56-5.62,8.87-9.99,9.27a6.573,6.573,0,0,1-1.71-.05c-4.05-.63-6.88-4.52-9.22-8.12-3.44-5.36-6.86-10.97-8.12-17.39-1.17-5.83-.26-11.91.21-17.9,1.73-21.46,4.91-43.94,6.41-59.36a46.883,46.883,0,0,1,10.6.33,26.159,26.159,0,0,1,8.52,3.02c.02.66.07,1.31.09,1.94.77,12.96,2.41,25.79,3.77,38.66.98,9.38,1.83,18.79,2.04,28.31C335.18,402.81,335.11,410.25,332.42,416.89Z" transform="translate(-302.522 -240.07)" fill="#e9b182"/>
            <path id="Path_323" data-name="Path 323" d="M332.42,416.89c-1.83,4.56-5.62,8.87-9.99,9.27a36.41,36.41,0,0,0,1.38-3.88c1.29-4.42,1.24-9.1,1.19-13.71-.19-16.73-.37-33.51-2.34-50.12-.96-8.05-2.34-16.08-2.29-24.19.02-3.49.3-7.07.23-10.58a26.159,26.159,0,0,1,8.52,3.02c.02.66.07,1.31.09,1.94.77,12.96,2.41,25.79,3.77,38.66.98,9.38,1.83,18.79,2.04,28.31C335.18,402.81,335.11,410.25,332.42,416.89Z" transform="translate(-302.522 -240.07)" fill="#c18965"/>
            <path id="Path_324" data-name="Path 324" d="M344.59,258.04a14.033,14.033,0,0,0-2.48,2.85,78.335,78.335,0,0,0-7.6,14.51q3.375-17.55,5.08-35.33c-4.84.33-6.55,5.48-7.42,9.45a105.748,105.748,0,0,0-2.43,20.1c-.35-2.13-.7-4.28-1.05-6.41-.52-3.3-1.05-6.6-1.36-9.94-.26-3.02,0-6.01-.4-9.01-.61-4.68-3.02-.7-3.81,1.24-1.4,3.32-1.52,7.37-1.52,10.9a86.056,86.056,0,0,0,2.2,19.3c-.56-2.2-1.15-4.49-2.6-6.22-1.45-1.71-4.05-2.71-6.08-1.66a7.7,7.7,0,0,0-2.32,2.13l-1.97,2.39a11.982,11.982,0,0,0-2.11,3.18,4,4,0,0,0,.19,3.65c.09.12.19.23.28.35-2.2-1.45-4.45,2.71-5.17,4.21a14.353,14.353,0,0,0-.98,10.18c1.78,6.22,8.68,11.02,8.1,17.9-.33,3.84-.7,7.7-1.12,11.54a51.468,51.468,0,0,0,18.58,3.07h.54c-.47-7.44-.68-16.15,3.65-22.51,5.01-7.37,7.3-13.9,8.96-22.93,1.43-7.77,3.37-15.35,6.97-22.53.09-.19.16-.37.21-.51C349.64,255.63,345.6,257.22,344.59,258.04Zm-30.44,25.88c.05,2.08.54,5.73-.82,7.46a.875.875,0,0,1-.3.28.319.319,0,0,1-.16.09c-.42.09-.77-.28-1.01-.63-.98-1.38-1.94-2.81-2.88-4.24a1.176,1.176,0,0,1-.26-.51,1.3,1.3,0,0,1,.19-.77c.73-1.68,2.39-3.81.87-5.57a1.253,1.253,0,0,0-.23-.23,1.447,1.447,0,0,0,.96.26,2.292,2.292,0,0,0,1.19-.56,9.872,9.872,0,0,0,2.86-3.42,3.242,3.242,0,0,0-.3.98A33.875,33.875,0,0,0,314.15,283.92Z" transform="translate(-302.522 -240.07)" fill="#b8dabe"/>
            <path id="Path_325" data-name="Path 325" d="M317.77,288.57c-.82,1.71-2.25,3.67-4.12,3.32a2.151,2.151,0,0,1-.63-.23.8.8,0,0,0,.3-.28c1.36-1.73.87-5.38.82-7.46a36.1,36.1,0,0,1,.09-6.86l.91-1.12a5.836,5.836,0,0,1,1.66-1.59,2.122,2.122,0,0,1,2.2-.02,2.735,2.735,0,0,1,.87,1.26C321.47,279.82,319.76,284.52,317.77,288.57Z" transform="translate(-302.522 -240.07)" fill="#a1cea8"/>
          </g>
        </g>
        <path id="Path_326" data-name="Path 326" d="M241.3,202.82a14.508,14.508,0,0,0-2.58-1.51,11.584,11.584,0,0,0-13.48,3.51,15.658,15.658,0,0,0-2.76,7.47,13.952,13.952,0,0,0-6.27,4.61,3.873,3.873,0,0,1-.91.94,3.45,3.45,0,0,1-2.57.07c-.06-4.95-.63-9.34,1.58-14.02a13.247,13.247,0,0,1,12.07-7.69c4.58-.12,9.98.27,13.22,3.98A11.355,11.355,0,0,1,241.3,202.82Z" transform="translate(-148.71 -190.082)" fill="#7e9b90"/>
        <path id="Path_327" data-name="Path 327" d="M209.68,500.3c-.14.35-.57.43-.94.45-1.58.11-3.18-.06-4.76-.03a8.443,8.443,0,0,0-4.55,1.16,4.645,4.645,0,0,0-1.69,1.93c-.54-1.05-.43-2.35.63-3.89a18.209,18.209,0,0,1,1.81-1.92,6.948,6.948,0,0,0,1.57-2.77,3.573,3.573,0,0,0,1.1.94,34.316,34.316,0,0,0,5.88,3.01C209.26,499.37,209.88,499.79,209.68,500.3Z" transform="translate(-148.71 -190.082)" fill="#484e56"/>
      </g>
    </g>
    <rect id="Rectangle_4" data-name="Rectangle 4" width="434" height="451" transform="translate(-8 374)" fill="#dcedff"/>
    <g id="Group_268" data-name="Group 268" transform="translate(16 9.931)">
      <g id="Device" transform="translate(73.583 0)">
        <g id="Group_258" data-name="Group 258">
          <path id="Path_328" data-name="Path 328" d="M324.26,46.948,181.5,46.87c-17.18-.009-31.11,12.04-31.12,26.91l-.07,309.8c0,14.862,13.91,26.919,31.08,26.919l142.77.069c17.18.009,31.11-12.04,31.12-26.91l.07-309.8C355.35,59.005,341.43,46.957,324.26,46.948Zm21.55,332.191c0,10.413-9.76,18.852-21.79,18.852l-142.48-.069c-12.03-.009-21.77-8.448-21.77-18.86l.07-302.381c0-10.413,9.76-18.852,21.79-18.852l24.23.009,9.73.009c3.71,0,6.72,2.727,6.72,6.085v4.345c0,3.358,3.01,6.085,6.72,6.085l53.95.026c3.71,0,6.72-2.718,6.72-6.076V63.965c0-3.358,3.01-6.076,6.72-6.076l27.68.017c12.03.009,21.77,8.448,21.77,18.852Z" transform="translate(-150.31 -46.87)" fill="#263238"/>
          <g id="Group_251" data-name="Group 251" transform="translate(9.49 272.717)">
            <g id="Group_237" data-name="Group 237" transform="translate(60.49)">
              <rect id="Rectangle_3" data-name="Rectangle 3" width="74.08" height="32.98" fill="#263238"/>
            </g>
            <g id="Group_238" data-name="Group 238">
              <path id="Path_329" data-name="Path 329" d="M345.82,374.08H282.1c0,14.05-11.95,25.47-26.64,25.47s-26.64-11.43-26.64-25.47H159.8v57.15a21.785,21.785,0,0,0,21.77,21.79l142.48.08a21.774,21.774,0,0,0,21.79-21.78Z" transform="translate(-159.8 -374.08)" fill="#0e56a2"/>
            </g>
            <g id="Group_240" data-name="Group 240" transform="translate(84.7 51.47)">
              <path id="Path_336" data-name="Path 336" d="M246.29,425.58v5.63h-.41v-5.26H244.5v-.37Z" transform="translate(-244.5 -425.55)" fill="#fff"/>
              <path id="Path_337" data-name="Path 337" d="M247.72,428.4c0-1.76.91-2.85,2.2-2.85s2.2,1.09,2.2,2.85-.91,2.85-2.2,2.85S247.72,430.16,247.72,428.4Zm4,0c0-1.57-.73-2.48-1.79-2.48s-1.79.91-1.79,2.48.73,2.48,1.79,2.48S251.72,429.97,251.72,428.4Z" transform="translate(-244.5 -425.55)" fill="#fff"/>
              <path id="Path_338" data-name="Path 338" d="M253.04,427.32a.337.337,0,0,1,.34-.34.331.331,0,0,1,.34.34.34.34,0,1,1-.68,0Zm0,3.58a.337.337,0,0,1,.34-.34.331.331,0,0,1,.34.34.346.346,0,0,1-.34.35A.352.352,0,0,1,253.04,430.9Z" transform="translate(-244.5 -425.55)" fill="#fff"/>
              <path id="Path_339" data-name="Path 339" d="M254.62,428.4c0-1.76.91-2.85,2.2-2.85s2.2,1.09,2.2,2.85-.91,2.85-2.2,2.85S254.62,430.16,254.62,428.4Zm4,0c0-1.57-.73-2.48-1.79-2.48s-1.79.91-1.79,2.48.73,2.48,1.79,2.48S258.62,429.97,258.62,428.4Z" transform="translate(-244.5 -425.55)" fill="#fff"/>
              <path id="Path_340" data-name="Path 340" d="M264.62,429.65h-1.18v1.56h-.4v-1.56h-3.21v-.3l3.06-3.77h.46l-3,3.71h2.7v-1.38h.39v1.38h1.18v.36Z" transform="translate(-244.5 -425.55)" fill="#fff"/>
            </g>
            <g id="Group_241" data-name="Group 241" transform="translate(19.01 26.69)">
              <path id="Path_341" data-name="Path 341" d="M196,422.41H183.26a4.447,4.447,0,0,1-4.45-4.45V405.22a4.447,4.447,0,0,1,4.45-4.45H196a4.447,4.447,0,0,1,4.45,4.45v12.74A4.453,4.453,0,0,1,196,422.41Z" transform="translate(-178.81 -400.77)" fill="#fafafa"/>
            </g>
            <g id="Group_242" data-name="Group 242" transform="translate(148.12 25.44)">
              <path id="Path_342" data-name="Path 342" d="M324.63,420.93H312.62a4.707,4.707,0,0,1-4.7-4.7V404.22a4.707,4.707,0,0,1,4.7-4.7h12.01a4.707,4.707,0,0,1,4.7,4.7v12.01A4.707,4.707,0,0,1,324.63,420.93Zm-12.01-20.9a4.206,4.206,0,0,0-4.2,4.2v12.01a4.2,4.2,0,0,0,4.2,4.2h12.01a4.206,4.206,0,0,0,4.2-4.2V404.23a4.2,4.2,0,0,0-4.2-4.2Z" transform="translate(-307.92 -399.52)" fill="#fff"/>
            </g>
            <g id="Group_243" data-name="Group 243" transform="translate(24.83 33.99)">
              <path id="Path_343" data-name="Path 343" d="M193.57,408.07h-7.9a1.039,1.039,0,0,0-1.04,1.04v5.21a1.039,1.039,0,0,0,1.04,1.04h.67v2.3l2.67-2.3h4.56a1.039,1.039,0,0,0,1.04-1.04v-5.21A1.033,1.033,0,0,0,193.57,408.07Zm-6.45,4.6a.77.77,0,1,1,.77-.77A.77.77,0,0,1,187.12,412.67Zm2.4,0a.77.77,0,1,1,.77-.77A.77.77,0,0,1,189.52,412.67Zm2.57,0a.77.77,0,1,1,.77-.77A.77.77,0,0,1,192.09,412.67Z" transform="translate(-184.63 -408.07)" fill="#e8505b"/>
            </g>
            <g id="Group_250" data-name="Group 250" transform="translate(154.249 32.082)">
              <g id="Group_246" data-name="Group 246">
                <g id="Group_244" data-name="Group 244" transform="translate(1.517)">
                  <path id="Path_344" data-name="Path 344" d="M315.88,412.99a.249.249,0,0,1-.25-.22c-.59-4.98,3.13-6.57,3.16-6.59a.255.255,0,0,1,.2.47c-.14.06-3.41,1.47-2.86,6.06a.249.249,0,0,1-.22.28C315.9,412.98,315.89,412.99,315.88,412.99Z" transform="translate(-315.567 -406.162)" fill="#fff"/>
                </g>
                <g id="Group_245" data-name="Group 245" transform="translate(0 4.477)">
                  <path id="Path_345" data-name="Path 345" d="M315.88,412.99a.246.246,0,0,1-.19-.09l-1.58-1.85a.248.248,0,1,1,.38-.32l1.37,1.61,1.21-1.6a.25.25,0,1,1,.4.3l-1.4,1.85a.224.224,0,0,1-.19.1Z" transform="translate(-314.049 -410.639)" fill="#fff"/>
                </g>
              </g>
              <g id="Group_249" data-name="Group 249" transform="translate(4.063 1.308)">
                <g id="Group_247" data-name="Group 247" transform="translate(0 0.009)">
                  <path id="Path_346" data-name="Path 346" d="M318.36,414.3a.253.253,0,0,1-.23-.15.263.263,0,0,1,.13-.33c.14-.06,3.41-1.47,2.86-6.06a.249.249,0,0,1,.22-.28.262.262,0,0,1,.28.22c.59,4.98-3.13,6.57-3.16,6.59C318.42,414.29,318.39,414.3,318.36,414.3Z" transform="translate(-318.112 -407.479)" fill="#fff"/>
                </g>
                <g id="Group_248" data-name="Group 248" transform="translate(1.609)">
                  <path id="Path_347" data-name="Path 347" d="M319.97,409.82a.269.269,0,0,1-.15-.05.253.253,0,0,1-.05-.35l1.4-1.85a.242.242,0,0,1,.19-.1h.01a.246.246,0,0,1,.19.09l1.58,1.85a.248.248,0,1,1-.38.32l-1.37-1.61-1.21,1.6A.264.264,0,0,1,319.97,409.82Z" transform="translate(-319.721 -407.47)" fill="#fff"/>
                </g>
              </g>
            </g>
            <text id="Doctor" transform="translate(94.927 41.352)" fill="#fff" font-size="10" font-family="SegoeUIHistoric, Segoe UI Historic"><tspan x="-15.107" y="0">Doctor</tspan></text>
          </g>
          <g id="Group_256" data-name="Group 256" transform="translate(24.44 36.54)">
            <g id="Group_252" data-name="Group 252">
              <circle id="Ellipse_6" data-name="Ellipse 6" cx="14.72" cy="14.72" r="14.72" fill="#ebebeb"/>
            </g>
            <g id="Group_255" data-name="Group 255" transform="translate(9.84 10.444)">
              <g id="Group_253" data-name="Group 253" transform="translate(0.002)">
                <path id="Path_348" data-name="Path 348" d="M188.68,102.43a.25.25,0,0,1-.18-.08l-3.84-4.04a.248.248,0,0,1,0-.34l3.84-4.04a.248.248,0,1,1,.36.34l-3.68,3.87,3.68,3.87a.25.25,0,0,1-.18.42Z" transform="translate(-184.592 -93.854)" fill="#263238"/>
              </g>
              <g id="Group_254" data-name="Group 254" transform="translate(0 4.026)">
                <path id="Path_349" data-name="Path 349" d="M195.35,98.38H184.84a.25.25,0,0,1,0-.5h10.51a.25.25,0,1,1,0,.5Z" transform="translate(-184.59 -97.88)" fill="#263238"/>
              </g>
            </g>
          </g>
          <g id="Group_257" data-name="Group 257" transform="translate(178.77 262.081)">
            <path id="Path_350" data-name="Path 350" d="M329.08,349.66" transform="translate(-329.08 -349.66)" fill="#263238"/>
          </g>
        </g>
        <g id="Group_263" data-name="Group 263" transform="translate(155.946 238.893)">
          <g id="Group_259" data-name="Group 259">
            <circle id="Ellipse_7" data-name="Ellipse 7" cx="13.24" cy="13.24" r="13.24" transform="translate(0 26.136) rotate(-80.747)" fill="#0e56a2"/>
          </g>
          <g id="Group_260" data-name="Group 260" transform="translate(12.814 8.212)">
            <path id="Path_351" data-name="Path 351" d="M321.46,358.48a2.39,2.39,0,0,1-2.39-2.39v-5.2a2.39,2.39,0,0,1,4.78,0v5.2A2.4,2.4,0,0,1,321.46,358.48Zm0-9.47a1.9,1.9,0,0,0-1.89,1.89v5.2a1.89,1.89,0,0,0,3.78,0v-5.2A1.888,1.888,0,0,0,321.46,349.01Z" transform="translate(-319.07 -348.5)" fill="#fff"/>
          </g>
          <g id="Group_261" data-name="Group 261" transform="translate(10.569 13.89)">
            <path id="Path_352" data-name="Path 352" d="M321.46,360.16a4.294,4.294,0,0,1-3.35-1.33,6.3,6.3,0,0,1-1.26-4.43.246.246,0,1,1,.49.05,5.981,5.981,0,0,0,1.14,4.05,3.835,3.835,0,0,0,2.98,1.16,4,4,0,0,0,3.02-1.16,6.278,6.278,0,0,0,1.38-4.06.248.248,0,0,1,.24-.26.262.262,0,0,1,.26.24,6.689,6.689,0,0,1-1.52,4.43A4.489,4.489,0,0,1,321.46,360.16Z" transform="translate(-316.825 -354.177)" fill="#fff"/>
          </g>
          <g id="Group_262" data-name="Group 262" transform="translate(14.954 19.372)">
            <path id="Path_353" data-name="Path 353" d="M321.46,363.82a.248.248,0,0,1-.25-.25v-3.66a.25.25,0,0,1,.5,0v3.66A.248.248,0,0,1,321.46,363.82Z" transform="translate(-321.21 -359.66)" fill="#fff"/>
          </g>
        </g>
        <g id="Group_266" data-name="Group 266" transform="translate(81.87 246.008)">
          <g id="Group_264" data-name="Group 264">
            <circle id="Ellipse_8" data-name="Ellipse 8" cx="23.28" cy="23.28" r="23.28" fill="#0e56a2"/>
          </g>
          <g id="Group_265" data-name="Group 265" transform="translate(14.885 15.987)">
            <path id="Path_354" data-name="Path 354" d="M253.39,366.5a4.027,4.027,0,0,0-6.02,1.22,2.414,2.414,0,0,0,.56,3.03c2.14,2.1,6.63,6.31,8.58,8.14a4.838,4.838,0,0,0,3.99,1.29,4.208,4.208,0,0,0,2.83-1.75c2.2-3.02-3.08-5.38-3.08-5.38l-2.31,2.42-5.38-5.19,2.36-2.6Z" transform="translate(-247.064 -365.647)" fill="#fff"/>
          </g>
        </g>
      </g>
    </g>
  </g>
</svg>
